<svg width="134" height="13" viewBox="0 0 134 13" fill="none" xmlns="http://www.w3.org/2000/svg">
<path d="M0.763672 8.36426V6.96973H4.38281V3.32568H5.80225V6.96973H9.42139V8.36426H5.80225V12H4.38281V8.36426H0.763672ZM16.917 9.12793C16.9613 9.95247 17.2795 10.5225 17.8716 10.8379C18.1759 11.0039 18.519 11.0869 18.9009 11.0869C19.6147 11.0869 20.2235 10.7909 20.7271 10.1987C21.2306 9.60107 21.5876 8.39193 21.7979 6.57129C21.4658 7.09701 21.0535 7.46777 20.561 7.68359C20.0741 7.89388 19.5483 7.99902 18.9839 7.99902C17.8384 7.99902 16.9308 7.64209 16.2612 6.92822C15.5972 6.21436 15.2651 5.29574 15.2651 4.17236C15.2651 3.09326 15.5944 2.14421 16.2529 1.3252C16.9115 0.506185 17.8826 0.0966797 19.1665 0.0966797C20.8986 0.0966797 22.0939 0.876953 22.7524 2.4375C23.1177 3.29525 23.3003 4.36882 23.3003 5.6582C23.3003 7.11361 23.0817 8.40299 22.6445 9.52637C21.9196 11.3968 20.6911 12.332 18.959 12.332C17.7969 12.332 16.9142 12.0277 16.311 11.4189C15.7078 10.8102 15.4062 10.0465 15.4062 9.12793H16.917ZM19.1831 6.6875C19.7752 6.6875 20.3148 6.49382 20.8018 6.10645C21.2943 5.71354 21.5405 5.03011 21.5405 4.05615C21.5405 3.1818 21.3192 2.53158 20.8765 2.10547C20.4393 1.67383 19.8804 1.45801 19.1997 1.45801C18.4692 1.45801 17.8882 1.70426 17.4565 2.19678C17.0304 2.68376 16.8174 3.33675 16.8174 4.15576C16.8174 4.9305 17.0055 5.54753 17.3818 6.00684C17.7581 6.46061 18.3586 6.6875 19.1831 6.6875ZM26.3799 9.12793C26.4242 9.95247 26.7424 10.5225 27.3345 10.8379C27.6388 11.0039 27.9819 11.0869 28.3638 11.0869C29.0776 11.0869 29.6864 10.7909 30.1899 10.1987C30.6935 9.60107 31.0505 8.39193 31.2607 6.57129C30.9287 7.09701 30.5164 7.46777 30.0239 7.68359C29.5369 7.89388 29.0112 7.99902 28.4468 7.99902C27.3013 7.99902 26.3937 7.64209 25.7241 6.92822C25.0601 6.21436 24.728 5.29574 24.728 4.17236C24.728 3.09326 25.0573 2.14421 25.7158 1.3252C26.3743 0.506185 27.3455 0.0966797 28.6294 0.0966797C30.3615 0.0966797 31.5568 0.876953 32.2153 2.4375C32.5806 3.29525 32.7632 4.36882 32.7632 5.6582C32.7632 7.11361 32.5446 8.40299 32.1074 9.52637C31.3825 11.3968 30.154 12.332 28.4219 12.332C27.2598 12.332 26.3771 12.0277 25.7739 11.4189C25.1707 10.8102 24.8691 10.0465 24.8691 9.12793H26.3799ZM28.646 6.6875C29.2381 6.6875 29.7777 6.49382 30.2646 6.10645C30.7572 5.71354 31.0034 5.03011 31.0034 4.05615C31.0034 3.1818 30.7821 2.53158 30.3394 2.10547C29.9022 1.67383 29.3433 1.45801 28.6626 1.45801C27.9321 1.45801 27.3511 1.70426 26.9194 2.19678C26.4933 2.68376 26.2803 3.33675 26.2803 4.15576C26.2803 4.9305 26.4684 5.54753 26.8447 6.00684C27.221 6.46061 27.8215 6.6875 28.646 6.6875ZM35.6851 8.97021C35.7847 9.82243 36.1803 10.4118 36.8721 10.7383C37.2262 10.9043 37.6357 10.9873 38.1006 10.9873C38.986 10.9873 39.6418 10.7051 40.0679 10.1406C40.494 9.57617 40.707 8.95085 40.707 8.26465C40.707 7.43457 40.4525 6.79264 39.9434 6.33887C39.4398 5.88509 38.8338 5.6582 38.1255 5.6582C37.6108 5.6582 37.1681 5.75781 36.7974 5.95703C36.4321 6.15625 36.1195 6.43294 35.8594 6.78711L34.5645 6.7124L35.4692 0.3125H41.645V1.75684H36.5898L36.0835 5.06055C36.3602 4.85026 36.623 4.69255 36.8721 4.5874C37.3148 4.40479 37.8267 4.31348 38.4077 4.31348C39.4979 4.31348 40.422 4.66488 41.1802 5.36768C41.9383 6.07048 42.3174 6.96143 42.3174 8.04053C42.3174 9.1639 41.9688 10.1545 41.2715 11.0122C40.5798 11.87 39.473 12.2988 37.9512 12.2988C36.9827 12.2988 36.125 12.0277 35.3779 11.4854C34.6364 10.9375 34.2214 10.0991 34.1328 8.97021H35.6851ZM49.8794 8.97021C49.979 9.82243 50.3747 10.4118 51.0664 10.7383C51.4206 10.9043 51.8301 10.9873 52.2949 10.9873C53.1803 10.9873 53.8361 10.7051 54.2622 10.1406C54.6883 9.57617 54.9014 8.95085 54.9014 8.26465C54.9014 7.43457 54.6468 6.79264 54.1377 6.33887C53.6341 5.88509 53.0282 5.6582 52.3198 5.6582C51.8052 5.6582 51.3625 5.75781 50.9917 5.95703C50.6265 6.15625 50.3138 6.43294 50.0537 6.78711L48.7588 6.7124L49.6636 0.3125H55.8394V1.75684H50.7842L50.2778 5.06055C50.5545 4.85026 50.8174 4.69255 51.0664 4.5874C51.5091 4.40479 52.021 4.31348 52.6021 4.31348C53.6922 4.31348 54.6164 4.66488 55.3745 5.36768C56.1326 6.07048 56.5117 6.96143 56.5117 8.04053C56.5117 9.1639 56.1631 10.1545 55.4658 11.0122C54.7741 11.87 53.6673 12.2988 52.1455 12.2988C51.1771 12.2988 50.3193 12.0277 49.5723 11.4854C48.8307 10.9375 48.4157 10.0991 48.3271 8.97021H49.8794ZM59.5 9.12793C59.5443 9.95247 59.8625 10.5225 60.4546 10.8379C60.759 11.0039 61.1021 11.0869 61.4839 11.0869C62.1978 11.0869 62.8065 10.7909 63.3101 10.1987C63.8136 9.60107 64.1706 8.39193 64.3809 6.57129C64.0488 7.09701 63.6366 7.46777 63.144 7.68359C62.6571 7.89388 62.1313 7.99902 61.5669 7.99902C60.4214 7.99902 59.5138 7.64209 58.8442 6.92822C58.1802 6.21436 57.8481 5.29574 57.8481 4.17236C57.8481 3.09326 58.1774 2.14421 58.8359 1.3252C59.4945 0.506185 60.4657 0.0966797 61.7495 0.0966797C63.4816 0.0966797 64.6769 0.876953 65.3354 2.4375C65.7007 3.29525 65.8833 4.36882 65.8833 5.6582C65.8833 7.11361 65.6647 8.40299 65.2275 9.52637C64.5026 11.3968 63.2741 12.332 61.542 12.332C60.3799 12.332 59.4972 12.0277 58.894 11.4189C58.2909 10.8102 57.9893 10.0465 57.9893 9.12793H59.5ZM61.7661 6.6875C62.3582 6.6875 62.8978 6.49382 63.3848 6.10645C63.8773 5.71354 64.1235 5.03011 64.1235 4.05615C64.1235 3.1818 63.9022 2.53158 63.4595 2.10547C63.0223 1.67383 62.4634 1.45801 61.7827 1.45801C61.0522 1.45801 60.4712 1.70426 60.0396 2.19678C59.6134 2.68376 59.4004 3.33675 59.4004 4.15576C59.4004 4.9305 59.5885 5.54753 59.9648 6.00684C60.3411 6.46061 60.9416 6.6875 61.7661 6.6875ZM68.332 3.58301V2.4375C69.4111 2.33236 70.1637 2.15804 70.5898 1.91455C71.016 1.66553 71.3341 1.08171 71.5444 0.163086H72.7231V12H71.1294V3.58301H68.332ZM76.5332 3.58301V2.4375C77.6123 2.33236 78.3649 2.15804 78.791 1.91455C79.2171 1.66553 79.5353 1.08171 79.7456 0.163086H80.9243V12H79.3306V3.58301H76.5332ZM84.7344 3.58301V2.4375C85.8135 2.33236 86.5661 2.15804 86.9922 1.91455C87.4183 1.66553 87.7365 1.08171 87.9468 0.163086H89.1255V12H87.5317V3.58301H84.7344ZM92.9355 3.58301V2.4375C94.0146 2.33236 94.7673 2.15804 95.1934 1.91455C95.6195 1.66553 95.9377 1.08171 96.1479 0.163086H97.3267V12H95.7329V3.58301H92.9355ZM107.761 9.12793C107.805 9.95247 108.123 10.5225 108.715 10.8379C109.02 11.0039 109.363 11.0869 109.745 11.0869C110.458 11.0869 111.067 10.7909 111.571 10.1987C112.074 9.60107 112.431 8.39193 112.642 6.57129C112.31 7.09701 111.897 7.46777 111.405 7.68359C110.918 7.89388 110.392 7.99902 109.828 7.99902C108.682 7.99902 107.775 7.64209 107.105 6.92822C106.441 6.21436 106.109 5.29574 106.109 4.17236C106.109 3.09326 106.438 2.14421 107.097 1.3252C107.755 0.506185 108.726 0.0966797 110.01 0.0966797C111.742 0.0966797 112.938 0.876953 113.596 2.4375C113.961 3.29525 114.144 4.36882 114.144 5.6582C114.144 7.11361 113.925 8.40299 113.488 9.52637C112.763 11.3968 111.535 12.332 109.803 12.332C108.641 12.332 107.758 12.0277 107.155 11.4189C106.552 10.8102 106.25 10.0465 106.25 9.12793H107.761ZM110.027 6.6875C110.619 6.6875 111.159 6.49382 111.646 6.10645C112.138 5.71354 112.384 5.03011 112.384 4.05615C112.384 3.1818 112.163 2.53158 111.72 2.10547C111.283 1.67383 110.724 1.45801 110.043 1.45801C109.313 1.45801 108.732 1.70426 108.3 2.19678C107.874 2.68376 107.661 3.33675 107.661 4.15576C107.661 4.9305 107.849 5.54753 108.226 6.00684C108.602 6.46061 109.202 6.6875 110.027 6.6875ZM117.224 9.12793C117.268 9.95247 117.586 10.5225 118.178 10.8379C118.483 11.0039 118.826 11.0869 119.208 11.0869C119.921 11.0869 120.53 10.7909 121.034 10.1987C121.537 9.60107 121.894 8.39193 122.104 6.57129C121.772 7.09701 121.36 7.46777 120.868 7.68359C120.381 7.89388 119.855 7.99902 119.291 7.99902C118.145 7.99902 117.237 7.64209 116.568 6.92822C115.904 6.21436 115.572 5.29574 115.572 4.17236C115.572 3.09326 115.901 2.14421 116.56 1.3252C117.218 0.506185 118.189 0.0966797 119.473 0.0966797C121.205 0.0966797 122.401 0.876953 123.059 2.4375C123.424 3.29525 123.607 4.36882 123.607 5.6582C123.607 7.11361 123.388 8.40299 122.951 9.52637C122.226 11.3968 120.998 12.332 119.266 12.332C118.104 12.332 117.221 12.0277 116.618 11.4189C116.014 10.8102 115.713 10.0465 115.713 9.12793H117.224ZM119.49 6.6875C120.082 6.6875 120.621 6.49382 121.108 6.10645C121.601 5.71354 121.847 5.03011 121.847 4.05615C121.847 3.1818 121.626 2.53158 121.183 2.10547C120.746 1.67383 120.187 1.45801 119.506 1.45801C118.776 1.45801 118.195 1.70426 117.763 2.19678C117.337 2.68376 117.124 3.33675 117.124 4.15576C117.124 4.9305 117.312 5.54753 117.688 6.00684C118.065 6.46061 118.665 6.6875 119.49 6.6875ZM126.687 9.12793C126.731 9.95247 127.049 10.5225 127.641 10.8379C127.945 11.0039 128.289 11.0869 128.67 11.0869C129.384 11.0869 129.993 10.7909 130.497 10.1987C131 9.60107 131.357 8.39193 131.567 6.57129C131.235 7.09701 130.823 7.46777 130.331 7.68359C129.844 7.89388 129.318 7.99902 128.753 7.99902C127.608 7.99902 126.7 7.64209 126.031 6.92822C125.367 6.21436 125.035 5.29574 125.035 4.17236C125.035 3.09326 125.364 2.14421 126.022 1.3252C126.681 0.506185 127.652 0.0966797 128.936 0.0966797C130.668 0.0966797 131.863 0.876953 132.522 2.4375C132.887 3.29525 133.07 4.36882 133.07 5.6582C133.07 7.11361 132.851 8.40299 132.414 9.52637C131.689 11.3968 130.461 12.332 128.729 12.332C127.566 12.332 126.684 12.0277 126.081 11.4189C125.477 10.8102 125.176 10.0465 125.176 9.12793H126.687ZM128.953 6.6875C129.545 6.6875 130.084 6.49382 130.571 6.10645C131.064 5.71354 131.31 5.03011 131.31 4.05615C131.31 3.1818 131.089 2.53158 130.646 2.10547C130.209 1.67383 129.65 1.45801 128.969 1.45801C128.239 1.45801 127.658 1.70426 127.226 2.19678C126.8 2.68376 126.587 3.33675 126.587 4.15576C126.587 4.9305 126.775 5.54753 127.151 6.00684C127.528 6.46061 128.128 6.6875 128.953 6.6875Z" fill="white"/>
</svg>
