<svg width="113" height="17" viewBox="0 0 113 17" fill="none" xmlns="http://www.w3.org/2000/svg">
<path d="M7.94678 0.526855C9.854 0.526855 11.334 1.0293 12.3867 2.03418C13.4395 3.03906 14.0239 4.18066 14.1401 5.45898H12.1509C11.9253 4.48828 11.4741 3.71924 10.7974 3.15186C10.1274 2.58447 9.18408 2.30078 7.96729 2.30078C6.48389 2.30078 5.28418 2.82373 4.36816 3.86963C3.45898 4.90869 3.00439 6.50488 3.00439 8.6582C3.00439 10.4219 3.41455 11.854 4.23486 12.9546C5.06201 14.0483 6.29248 14.5952 7.92627 14.5952C9.43018 14.5952 10.5752 14.0176 11.3613 12.8623C11.7783 12.2539 12.0894 11.4541 12.2944 10.4629H14.2837C14.106 12.0488 13.5181 13.3784 12.52 14.4517C11.3237 15.7437 9.71045 16.3896 7.68018 16.3896C5.93018 16.3896 4.46045 15.8599 3.271 14.8003C1.70557 13.3989 0.922852 11.2354 0.922852 8.30957C0.922852 6.08789 1.51074 4.26611 2.68652 2.84424C3.95801 1.29932 5.71143 0.526855 7.94678 0.526855ZM20.8872 14.8105C22.1108 14.8105 22.9482 14.3491 23.3994 13.4263C23.8574 12.4966 24.0864 11.4644 24.0864 10.3296C24.0864 9.3042 23.9224 8.47021 23.5942 7.82764C23.0747 6.81592 22.1792 6.31006 20.9077 6.31006C19.7798 6.31006 18.9595 6.74072 18.4468 7.60205C17.9341 8.46338 17.6777 9.50244 17.6777 10.7192C17.6777 11.8882 17.9341 12.8623 18.4468 13.6416C18.9595 14.4209 19.7729 14.8105 20.8872 14.8105ZM20.959 4.7002C22.374 4.7002 23.5703 5.17188 24.5479 6.11523C25.5254 7.05859 26.0142 8.44629 26.0142 10.2783C26.0142 12.0488 25.5835 13.5117 24.7222 14.667C23.8608 15.8223 22.5244 16.3999 20.7129 16.3999C19.2021 16.3999 18.0024 15.8906 17.1138 14.8721C16.2251 13.8467 15.7808 12.4727 15.7808 10.75C15.7808 8.9043 16.249 7.43457 17.1855 6.34082C18.1221 5.24707 19.3799 4.7002 20.959 4.7002ZM28.2188 5.01807H29.9722V6.57666C30.4917 5.93408 31.042 5.47266 31.623 5.19238C32.2041 4.91211 32.8501 4.77197 33.561 4.77197C35.1196 4.77197 36.1724 5.31543 36.7192 6.40234C37.02 6.99707 37.1704 7.84814 37.1704 8.95557V16H35.2939V9.07861C35.2939 8.40869 35.1948 7.86865 34.9966 7.4585C34.6685 6.7749 34.0737 6.43311 33.2124 6.43311C32.7749 6.43311 32.416 6.47754 32.1357 6.56641C31.6299 6.7168 31.1855 7.01758 30.8027 7.46875C30.4951 7.83105 30.2935 8.20703 30.1978 8.59668C30.1089 8.97949 30.0645 9.52979 30.0645 10.2476V16H28.2188V5.01807ZM40.2773 1.95215H42.1436V5.01807H43.897V6.52539H42.1436V13.6929C42.1436 14.0757 42.2734 14.332 42.5332 14.4619C42.6768 14.5371 42.916 14.5747 43.251 14.5747C43.3398 14.5747 43.4355 14.5747 43.5381 14.5747C43.6406 14.5679 43.7603 14.5576 43.897 14.5439V16C43.6851 16.0615 43.4629 16.106 43.2305 16.1333C43.0049 16.1606 42.7588 16.1743 42.4922 16.1743C41.6309 16.1743 41.0464 15.9556 40.7388 15.5181C40.4312 15.0737 40.2773 14.4995 40.2773 13.7954V6.52539H38.7905V5.01807H40.2773V1.95215ZM47.168 13.0776C47.168 13.6108 47.3628 14.0312 47.7524 14.3389C48.1421 14.6465 48.6035 14.8003 49.1367 14.8003C49.7861 14.8003 50.415 14.6499 51.0234 14.3491C52.0488 13.8501 52.5615 13.0332 52.5615 11.8984V10.4116C52.3359 10.5552 52.0454 10.6748 51.6899 10.7705C51.3345 10.8662 50.9858 10.9346 50.644 10.9756L49.5264 11.1191C48.8564 11.208 48.354 11.3481 48.019 11.5396C47.4517 11.8608 47.168 12.3735 47.168 13.0776ZM51.6387 9.34521C52.0625 9.29053 52.3462 9.11279 52.4897 8.81201C52.5718 8.64795 52.6128 8.41211 52.6128 8.10449C52.6128 7.47559 52.3872 7.021 51.936 6.74072C51.4917 6.45361 50.8525 6.31006 50.0186 6.31006C49.0547 6.31006 48.3711 6.56982 47.9678 7.08936C47.7422 7.37646 47.5952 7.80371 47.5269 8.37109H45.8042C45.8384 7.01758 46.2759 6.07764 47.1167 5.55127C47.9644 5.01807 48.9453 4.75146 50.0596 4.75146C51.3516 4.75146 52.4009 4.99756 53.2075 5.48975C54.0073 5.98193 54.4072 6.74756 54.4072 7.78662V14.1133C54.4072 14.3047 54.4448 14.4585 54.52 14.5747C54.6021 14.6909 54.7695 14.749 55.0225 14.749C55.1045 14.749 55.1968 14.7456 55.2993 14.7388C55.4019 14.7251 55.5112 14.708 55.6274 14.6875V16.0513C55.3403 16.1333 55.1216 16.1846 54.9712 16.2051C54.8208 16.2256 54.6157 16.2358 54.356 16.2358C53.7202 16.2358 53.2588 16.0103 52.9717 15.5591C52.8213 15.3198 52.7153 14.9814 52.6538 14.5439C52.2778 15.0361 51.7378 15.4634 51.0337 15.8257C50.3296 16.188 49.5537 16.3691 48.7061 16.3691C47.6875 16.3691 46.8535 16.0615 46.2041 15.4463C45.5615 14.8242 45.2402 14.0483 45.2402 13.1187C45.2402 12.1001 45.5581 11.3105 46.1938 10.75C46.8296 10.1895 47.6636 9.84424 48.6958 9.71436L51.6387 9.34521ZM61.6772 4.7002C62.9146 4.7002 63.9194 5.00098 64.6919 5.60254C65.4712 6.2041 65.9395 7.23975 66.0967 8.70947H64.3022C64.1929 8.03271 63.9434 7.47217 63.5537 7.02783C63.1641 6.57666 62.5386 6.35107 61.6772 6.35107C60.5015 6.35107 59.6606 6.92529 59.1548 8.07373C58.8267 8.81885 58.6626 9.73828 58.6626 10.832C58.6626 11.9326 58.895 12.8589 59.3599 13.6108C59.8247 14.3628 60.5562 14.7388 61.5542 14.7388C62.3198 14.7388 62.9248 14.5063 63.3691 14.0415C63.8203 13.5698 64.1313 12.9272 64.3022 12.1138H66.0967C65.8916 13.5698 65.3789 14.6362 64.5586 15.313C63.7383 15.9829 62.689 16.3179 61.4106 16.3179C59.9751 16.3179 58.8301 15.7949 57.9756 14.749C57.1211 13.6963 56.6938 12.3838 56.6938 10.8115C56.6938 8.88379 57.1621 7.3833 58.0986 6.31006C59.0352 5.23682 60.228 4.7002 61.6772 4.7002ZM68.3115 1.95215H70.1777V5.01807H71.9312V6.52539H70.1777V13.6929C70.1777 14.0757 70.3076 14.332 70.5674 14.4619C70.7109 14.5371 70.9502 14.5747 71.2852 14.5747C71.374 14.5747 71.4697 14.5747 71.5723 14.5747C71.6748 14.5679 71.7944 14.5576 71.9312 14.5439V16C71.7192 16.0615 71.4971 16.106 71.2646 16.1333C71.0391 16.1606 70.793 16.1743 70.5264 16.1743C69.665 16.1743 69.0806 15.9556 68.7729 15.5181C68.4653 15.0737 68.3115 14.4995 68.3115 13.7954V6.52539H66.8247V5.01807H68.3115V1.95215ZM80.3394 0.937012H82.4004V16H80.3394V0.937012ZM85.4766 5.01807H87.23V6.57666C87.7495 5.93408 88.2998 5.47266 88.8809 5.19238C89.4619 4.91211 90.1079 4.77197 90.8188 4.77197C92.3774 4.77197 93.4302 5.31543 93.9771 6.40234C94.2778 6.99707 94.4282 7.84814 94.4282 8.95557V16H92.5518V9.07861C92.5518 8.40869 92.4526 7.86865 92.2544 7.4585C91.9263 6.7749 91.3315 6.43311 90.4702 6.43311C90.0327 6.43311 89.6738 6.47754 89.3936 6.56641C88.8877 6.7168 88.4434 7.01758 88.0605 7.46875C87.7529 7.83105 87.5513 8.20703 87.4556 8.59668C87.3667 8.97949 87.3223 9.52979 87.3223 10.2476V16H85.4766V5.01807ZM97.6274 3.34668C97.6548 2.58105 97.7881 2.02051 98.0273 1.66504C98.458 1.03613 99.2886 0.72168 100.519 0.72168C100.635 0.72168 100.755 0.725098 100.878 0.731934C101.001 0.73877 101.141 0.749023 101.298 0.762695V2.44434C101.107 2.43066 100.967 2.42383 100.878 2.42383C100.796 2.41699 100.717 2.41357 100.642 2.41357C100.082 2.41357 99.7466 2.56055 99.6372 2.85449C99.5278 3.1416 99.4731 3.87988 99.4731 5.06934H101.298V6.52539H99.4526V16H97.6274V6.52539H96.0996V5.06934H97.6274V3.34668ZM107.369 14.8105C108.592 14.8105 109.43 14.3491 109.881 13.4263C110.339 12.4966 110.568 11.4644 110.568 10.3296C110.568 9.3042 110.404 8.47021 110.076 7.82764C109.556 6.81592 108.661 6.31006 107.389 6.31006C106.261 6.31006 105.441 6.74072 104.928 7.60205C104.416 8.46338 104.159 9.50244 104.159 10.7192C104.159 11.8882 104.416 12.8623 104.928 13.6416C105.441 14.4209 106.254 14.8105 107.369 14.8105ZM107.44 4.7002C108.855 4.7002 110.052 5.17188 111.029 6.11523C112.007 7.05859 112.496 8.44629 112.496 10.2783C112.496 12.0488 112.065 13.5117 111.204 14.667C110.342 15.8223 109.006 16.3999 107.194 16.3999C105.684 16.3999 104.484 15.8906 103.595 14.8721C102.707 13.8467 102.262 12.4727 102.262 10.75C102.262 8.9043 102.73 7.43457 103.667 6.34082C104.604 5.24707 105.861 4.7002 107.44 4.7002Z" fill="white"/>
</svg>
