<svg width="126" height="17" viewBox="0 0 126 17" fill="none" xmlns="http://www.w3.org/2000/svg">
<path d="M0.0957031 4.15137H1.61475V13H0.0957031V4.15137ZM0.0957031 0.806152H1.61475V2.49951H0.0957031V0.806152ZM3.88086 4.10986H5.30029V5.37158C5.72087 4.8514 6.16634 4.47786 6.63672 4.25098C7.1071 4.02409 7.63005 3.91064 8.20557 3.91064C9.46729 3.91064 10.3195 4.35059 10.7622 5.23047C11.0057 5.71191 11.1274 6.40088 11.1274 7.29736V13H9.6084V7.39697C9.6084 6.85465 9.52816 6.41748 9.36768 6.08545C9.10205 5.53206 8.62061 5.25537 7.92334 5.25537C7.56917 5.25537 7.27865 5.29134 7.05176 5.36328C6.64225 5.48503 6.28255 5.72852 5.97266 6.09375C5.72363 6.38704 5.56038 6.69141 5.48291 7.00684C5.41097 7.31673 5.375 7.76221 5.375 8.34326V13H3.88086V4.10986ZM13.7173 2.75684C13.7394 2.13704 13.8473 1.68327 14.041 1.39551C14.3896 0.886393 15.062 0.631836 16.0581 0.631836C16.1522 0.631836 16.249 0.634603 16.3486 0.640137C16.4482 0.645671 16.5617 0.653971 16.689 0.665039V2.02637C16.534 2.0153 16.4206 2.00977 16.3486 2.00977C16.2822 2.00423 16.2186 2.00146 16.1577 2.00146C15.7039 2.00146 15.4328 2.12044 15.3442 2.3584C15.2557 2.59082 15.2114 3.18848 15.2114 4.15137H16.689V5.33008H15.1948V13H13.7173V5.33008H12.4805V4.15137H13.7173V2.75684ZM21.603 12.0371C22.5936 12.0371 23.2715 11.6636 23.6367 10.9165C24.0075 10.1639 24.1929 9.32829 24.1929 8.40967C24.1929 7.57959 24.0601 6.90446 23.7944 6.38428C23.3739 5.56527 22.6489 5.15576 21.6196 5.15576C20.7065 5.15576 20.0425 5.50439 19.6274 6.20166C19.2124 6.89893 19.0049 7.74007 19.0049 8.7251C19.0049 9.67139 19.2124 10.46 19.6274 11.0908C20.0425 11.7217 20.701 12.0371 21.603 12.0371ZM21.6611 3.85254C22.8066 3.85254 23.7751 4.23438 24.5664 4.99805C25.3577 5.76172 25.7534 6.88509 25.7534 8.36816C25.7534 9.80143 25.4048 10.9857 24.7075 11.9209C24.0103 12.8561 22.9284 13.3237 21.4619 13.3237C20.2389 13.3237 19.2677 12.9115 18.5483 12.0869C17.8289 11.2568 17.4692 10.1445 17.4692 8.75C17.4692 7.25586 17.8483 6.06608 18.6064 5.18066C19.3646 4.29525 20.3828 3.85254 21.6611 3.85254ZM36.8101 5.5874C36.8101 5.2443 36.6938 4.93717 36.4614 4.66602C36.2345 4.38932 35.9191 4.25098 35.5151 4.25098C34.8843 4.25098 34.3364 4.62451 33.8716 5.37158C33.4123 6.11312 33.1826 6.85189 33.1826 7.58789C33.1826 8.13021 33.3016 8.54525 33.5396 8.83301C33.7775 9.11523 34.0763 9.25635 34.436 9.25635C35.1831 9.25635 35.7642 8.82194 36.1792 7.95312C36.5998 7.07878 36.8101 6.2902 36.8101 5.5874ZM35.1582 13.3569C32.8451 13.3569 31.0632 12.6348 29.8125 11.1904C28.8109 10.0339 28.3101 8.69743 28.3101 7.18115C28.3101 5.37712 28.9188 3.84424 30.1362 2.58252C31.4865 1.17692 33.2988 0.474121 35.5732 0.474121C37.5433 0.474121 39.0928 0.972168 40.2217 1.96826C41.2786 2.90902 41.8071 4.12923 41.8071 5.62891C41.8071 6.89062 41.4281 7.96973 40.6699 8.86621C39.9173 9.75716 39.0734 10.2026 38.1382 10.2026C37.5903 10.2026 37.1864 10.0726 36.9263 9.8125C36.6662 9.54688 36.5361 9.22868 36.5361 8.85791C36.5361 8.79704 36.5417 8.7334 36.5527 8.66699C36.5638 8.60059 36.5776 8.53141 36.5942 8.45947C36.3009 9.09587 35.9302 9.54688 35.4819 9.8125C35.0337 10.0726 34.5716 10.2026 34.0957 10.2026C33.415 10.2026 32.8617 9.95638 32.4355 9.46387C32.015 8.97135 31.8047 8.33773 31.8047 7.56299C31.8047 6.46175 32.1644 5.49056 32.8838 4.64941C33.6087 3.80827 34.3862 3.3877 35.2163 3.3877C35.7808 3.3877 36.2456 3.55094 36.6108 3.87744C36.9816 4.20394 37.1781 4.59684 37.2002 5.05615L37.6152 3.66162H38.8354L37.7314 7.29736C37.6484 7.57959 37.5876 7.80648 37.5488 7.97803C37.5101 8.14958 37.4907 8.30176 37.4907 8.43457C37.4907 8.68359 37.5654 8.86621 37.7148 8.98242C37.8698 9.0931 38.0441 9.14844 38.2378 9.14844C38.8687 9.14844 39.4331 8.81917 39.9312 8.16064C40.4347 7.50212 40.6865 6.6416 40.6865 5.5791C40.6865 4.29525 40.2383 3.28809 39.3418 2.55762C38.4453 1.82161 37.2389 1.45361 35.7227 1.45361C33.6198 1.45361 32.0122 2.06787 30.8999 3.29639C29.9481 4.34229 29.4722 5.65658 29.4722 7.23926C29.4722 8.62272 29.9259 9.78483 30.8335 10.7256C31.896 11.8379 33.4095 12.394 35.374 12.394C36.2926 12.394 37.1476 12.2502 37.939 11.9624C38.7303 11.6691 39.4552 11.2762 40.1138 10.7837L40.6616 11.5308C40.1636 11.9735 39.4193 12.3885 38.4287 12.7759C37.4382 13.1632 36.348 13.3569 35.1582 13.3569ZM50.3569 4.10986H52.0088C51.7985 4.67985 51.3309 5.98031 50.606 8.01123C50.0636 9.53857 49.6099 10.7837 49.2446 11.7466C48.3813 14.0155 47.7726 15.3989 47.4185 15.897C47.0643 16.395 46.4556 16.644 45.5923 16.644C45.382 16.644 45.2188 16.6357 45.1025 16.6191C44.9919 16.6025 44.8535 16.5721 44.6875 16.5278V15.1665C44.9476 15.2384 45.1357 15.2827 45.252 15.2993C45.3682 15.3159 45.4705 15.3242 45.5591 15.3242C45.8358 15.3242 46.0378 15.2772 46.165 15.1831C46.2979 15.0946 46.4085 14.9839 46.4971 14.8511C46.5247 14.8068 46.6243 14.5799 46.7959 14.1704C46.9674 13.7609 47.092 13.4565 47.1694 13.2573L43.8823 4.10986H45.5757L47.958 11.3481L50.3569 4.10986ZM54.4492 10.6343C54.4492 11.0659 54.6069 11.4062 54.9224 11.6553C55.2378 11.9043 55.6113 12.0288 56.043 12.0288C56.5687 12.0288 57.0778 11.9071 57.5703 11.6636C58.4004 11.2596 58.8154 10.5983 58.8154 9.67969V8.47607C58.6328 8.59229 58.3976 8.68913 58.1099 8.7666C57.8221 8.84408 57.5399 8.89941 57.2632 8.93262L56.3584 9.04883C55.8161 9.12077 55.4093 9.23421 55.1382 9.38916C54.6789 9.64925 54.4492 10.0643 54.4492 10.6343ZM58.0684 7.61279C58.4115 7.56852 58.6411 7.42464 58.7573 7.18115C58.8237 7.04834 58.8569 6.85742 58.8569 6.6084C58.8569 6.09928 58.6743 5.73128 58.3091 5.50439C57.9494 5.27197 57.432 5.15576 56.7568 5.15576C55.9766 5.15576 55.4232 5.36605 55.0967 5.78662C54.9141 6.01904 54.7951 6.36491 54.7397 6.82422H53.3452C53.3729 5.72852 53.7271 4.96761 54.4077 4.5415C55.0939 4.10986 55.888 3.89404 56.79 3.89404C57.8359 3.89404 58.6854 4.09326 59.3384 4.4917C59.9858 4.89014 60.3096 5.50993 60.3096 6.35107V11.4727C60.3096 11.6276 60.34 11.7521 60.4009 11.8462C60.4673 11.9403 60.6029 11.9873 60.8076 11.9873C60.874 11.9873 60.9487 11.9845 61.0317 11.979C61.1147 11.9679 61.2033 11.9541 61.2974 11.9375V13.0415C61.0649 13.1079 60.8879 13.1494 60.7661 13.166C60.6444 13.1826 60.4784 13.1909 60.2681 13.1909C59.7534 13.1909 59.3799 13.0083 59.1475 12.6431C59.0257 12.4494 58.9399 12.1755 58.8901 11.8213C58.5858 12.2197 58.1486 12.5656 57.5786 12.8589C57.0086 13.1522 56.3805 13.2988 55.6943 13.2988C54.8698 13.2988 54.1947 13.0498 53.6689 12.5518C53.1488 12.0482 52.8887 11.4201 52.8887 10.6675C52.8887 9.84294 53.146 9.20378 53.6606 8.75C54.1753 8.29622 54.8504 8.01676 55.686 7.91162L58.0684 7.61279ZM62.7666 0.764648H64.2607V5.31348C64.6149 4.86523 64.9331 4.5498 65.2153 4.36719C65.6968 4.05176 66.2972 3.89404 67.0166 3.89404C68.306 3.89404 69.1803 4.34505 69.6396 5.24707C69.8887 5.73958 70.0132 6.42301 70.0132 7.29736V13H68.4775V7.39697C68.4775 6.74398 68.3945 6.2653 68.2285 5.96094C67.9574 5.47396 67.4482 5.23047 66.7012 5.23047C66.0814 5.23047 65.5197 5.44352 65.0161 5.86963C64.5125 6.29574 64.2607 7.10091 64.2607 8.28516V13H62.7666V0.764648ZM75.7573 12.0371C76.7479 12.0371 77.4258 11.6636 77.791 10.9165C78.1618 10.1639 78.3472 9.32829 78.3472 8.40967C78.3472 7.57959 78.2144 6.90446 77.9487 6.38428C77.5282 5.56527 76.8032 5.15576 75.7739 5.15576C74.8608 5.15576 74.1968 5.50439 73.7817 6.20166C73.3667 6.89893 73.1592 7.74007 73.1592 8.7251C73.1592 9.67139 73.3667 10.46 73.7817 11.0908C74.1968 11.7217 74.8553 12.0371 75.7573 12.0371ZM75.8154 3.85254C76.9609 3.85254 77.9294 4.23438 78.7207 4.99805C79.512 5.76172 79.9077 6.88509 79.9077 8.36816C79.9077 9.80143 79.5591 10.9857 78.8618 11.9209C78.1646 12.8561 77.0827 13.3237 75.6162 13.3237C74.3932 13.3237 73.422 12.9115 72.7026 12.0869C71.9832 11.2568 71.6235 10.1445 71.6235 8.75C71.6235 7.25586 72.0026 6.06608 72.7607 5.18066C73.5189 4.29525 74.5371 3.85254 75.8154 3.85254ZM85.2202 12.0371C86.2108 12.0371 86.8887 11.6636 87.2539 10.9165C87.6247 10.1639 87.8101 9.32829 87.8101 8.40967C87.8101 7.57959 87.6772 6.90446 87.4116 6.38428C86.991 5.56527 86.2661 5.15576 85.2368 5.15576C84.3237 5.15576 83.6597 5.50439 83.2446 6.20166C82.8296 6.89893 82.6221 7.74007 82.6221 8.7251C82.6221 9.67139 82.8296 10.46 83.2446 11.0908C83.6597 11.7217 84.3182 12.0371 85.2202 12.0371ZM85.2783 3.85254C86.4238 3.85254 87.3923 4.23438 88.1836 4.99805C88.9749 5.76172 89.3706 6.88509 89.3706 8.36816C89.3706 9.80143 89.022 10.9857 88.3247 11.9209C87.6274 12.8561 86.5456 13.3237 85.0791 13.3237C83.8561 13.3237 82.8849 12.9115 82.1655 12.0869C81.4461 11.2568 81.0864 10.1445 81.0864 8.75C81.0864 7.25586 81.4655 6.06608 82.2236 5.18066C82.9818 4.29525 84 3.85254 85.2783 3.85254ZM91.5122 11.1904H93.2471V13H91.5122V11.1904ZM99.3149 3.85254C100.317 3.85254 101.13 4.09603 101.755 4.58301C102.386 5.06999 102.765 5.90837 102.893 7.09814H101.44C101.351 6.55029 101.149 6.09652 100.834 5.73682C100.519 5.37158 100.012 5.18896 99.3149 5.18896C98.3631 5.18896 97.6825 5.65381 97.2729 6.5835C97.0073 7.18669 96.8745 7.93099 96.8745 8.81641C96.8745 9.70736 97.0627 10.4572 97.439 11.0659C97.8153 11.6746 98.4074 11.979 99.2153 11.979C99.8351 11.979 100.325 11.7909 100.685 11.4146C101.05 11.0327 101.302 10.5125 101.44 9.854H102.893C102.727 11.0327 102.312 11.896 101.647 12.4438C100.983 12.9862 100.134 13.2573 99.0991 13.2573C97.937 13.2573 97.0101 12.834 96.3184 11.9873C95.6266 11.1351 95.2808 10.0726 95.2808 8.7998C95.2808 7.23926 95.6598 6.02458 96.418 5.15576C97.1761 4.28695 98.1418 3.85254 99.3149 3.85254ZM107.915 12.0371C108.905 12.0371 109.583 11.6636 109.948 10.9165C110.319 10.1639 110.504 9.32829 110.504 8.40967C110.504 7.57959 110.372 6.90446 110.106 6.38428C109.685 5.56527 108.96 5.15576 107.931 5.15576C107.018 5.15576 106.354 5.50439 105.939 6.20166C105.524 6.89893 105.316 7.74007 105.316 8.7251C105.316 9.67139 105.524 10.46 105.939 11.0908C106.354 11.7217 107.013 12.0371 107.915 12.0371ZM107.973 3.85254C109.118 3.85254 110.087 4.23438 110.878 4.99805C111.669 5.76172 112.065 6.88509 112.065 8.36816C112.065 9.80143 111.716 10.9857 111.019 11.9209C110.322 12.8561 109.24 13.3237 107.773 13.3237C106.55 13.3237 105.579 12.9115 104.86 12.0869C104.14 11.2568 103.781 10.1445 103.781 8.75C103.781 7.25586 104.16 6.06608 104.918 5.18066C105.676 4.29525 106.694 3.85254 107.973 3.85254ZM113.85 4.10986H115.327V5.37158C115.681 4.93441 116.002 4.61621 116.29 4.41699C116.783 4.07943 117.341 3.91064 117.967 3.91064C118.675 3.91064 119.245 4.08496 119.677 4.43359C119.92 4.63281 120.142 4.92611 120.341 5.31348C120.673 4.83757 121.063 4.48617 121.511 4.25928C121.959 4.02686 122.463 3.91064 123.022 3.91064C124.217 3.91064 125.031 4.34229 125.462 5.20557C125.695 5.67041 125.811 6.29574 125.811 7.08154V13H124.259V6.82422C124.259 6.2321 124.109 5.82536 123.811 5.604C123.517 5.38265 123.158 5.27197 122.731 5.27197C122.145 5.27197 121.639 5.46842 121.212 5.86133C120.792 6.25423 120.582 6.90999 120.582 7.82861V13H119.062V7.19775C119.062 6.59456 118.991 6.15462 118.847 5.87793C118.62 5.46289 118.196 5.25537 117.577 5.25537C117.012 5.25537 116.498 5.47396 116.033 5.91113C115.573 6.34831 115.344 7.13965 115.344 8.28516V13H113.85V4.10986Z" fill="white"/>
</svg>
