<svg width="182" height="17" viewBox="0 0 182 17" fill="none" xmlns="http://www.w3.org/2000/svg">
<path d="M0.253418 0.806152H2.61914L6.12207 11.1157L9.6001 0.806152H11.9409V13H10.3721V5.80322C10.3721 5.5542 10.3776 5.14193 10.3887 4.56641C10.3997 3.99089 10.4053 3.37386 10.4053 2.71533L6.92725 13H5.29199L1.78906 2.71533V3.08887C1.78906 3.3877 1.7946 3.84424 1.80566 4.4585C1.82227 5.06722 1.83057 5.51546 1.83057 5.80322V13H0.253418V0.806152ZM15.4023 10.6343C15.4023 11.0659 15.5601 11.4062 15.8755 11.6553C16.1909 11.9043 16.5645 12.0288 16.9961 12.0288C17.5218 12.0288 18.0309 11.9071 18.5234 11.6636C19.3535 11.2596 19.7686 10.5983 19.7686 9.67969V8.47607C19.5859 8.59229 19.3507 8.68913 19.063 8.7666C18.7752 8.84408 18.493 8.89941 18.2163 8.93262L17.3115 9.04883C16.7692 9.12077 16.3625 9.23421 16.0913 9.38916C15.632 9.64925 15.4023 10.0643 15.4023 10.6343ZM19.0215 7.61279C19.3646 7.56852 19.5942 7.42464 19.7104 7.18115C19.7769 7.04834 19.8101 6.85742 19.8101 6.6084C19.8101 6.09928 19.6274 5.73128 19.2622 5.50439C18.9025 5.27197 18.3851 5.15576 17.71 5.15576C16.9297 5.15576 16.3763 5.36605 16.0498 5.78662C15.8672 6.01904 15.7482 6.36491 15.6929 6.82422H14.2983C14.326 5.72852 14.6802 4.96761 15.3608 4.5415C16.047 4.10986 16.8411 3.89404 17.7432 3.89404C18.7891 3.89404 19.6385 4.09326 20.2915 4.4917C20.939 4.89014 21.2627 5.50993 21.2627 6.35107V11.4727C21.2627 11.6276 21.2931 11.7521 21.354 11.8462C21.4204 11.9403 21.556 11.9873 21.7607 11.9873C21.8271 11.9873 21.9019 11.9845 21.9849 11.979C22.0679 11.9679 22.1564 11.9541 22.2505 11.9375V13.0415C22.0181 13.1079 21.841 13.1494 21.7192 13.166C21.5975 13.1826 21.4315 13.1909 21.2212 13.1909C20.7065 13.1909 20.333 13.0083 20.1006 12.6431C19.9788 12.4494 19.8931 12.1755 19.8433 11.8213C19.5389 12.2197 19.1017 12.5656 18.5317 12.8589C17.9618 13.1522 17.3337 13.2988 16.6475 13.2988C15.8229 13.2988 15.1478 13.0498 14.6221 12.5518C14.1019 12.0482 13.8418 11.4201 13.8418 10.6675C13.8418 9.84294 14.0991 9.20378 14.6138 8.75C15.1284 8.29622 15.8035 8.01676 16.6392 7.91162L19.0215 7.61279ZM23.7197 4.15137H25.2388V13H23.7197V4.15137ZM23.7197 0.806152H25.2388V2.49951H23.7197V0.806152ZM27.5049 4.10986H28.9243V5.37158C29.3449 4.8514 29.7904 4.47786 30.2607 4.25098C30.7311 4.02409 31.2541 3.91064 31.8296 3.91064C33.0913 3.91064 33.9435 4.35059 34.3862 5.23047C34.6297 5.71191 34.7515 6.40088 34.7515 7.29736V13H33.2324V7.39697C33.2324 6.85465 33.1522 6.41748 32.9917 6.08545C32.7261 5.53206 32.2446 5.25537 31.5474 5.25537C31.1932 5.25537 30.9027 5.29134 30.6758 5.36328C30.2663 5.48503 29.9066 5.72852 29.5967 6.09375C29.3477 6.38704 29.1844 6.69141 29.1069 7.00684C29.035 7.31673 28.999 7.76221 28.999 8.34326V13H27.5049V4.10986ZM42.5874 10.2109C42.6317 10.709 42.7562 11.0908 42.9609 11.3564C43.3372 11.8379 43.9902 12.0786 44.9199 12.0786C45.4733 12.0786 45.9603 11.9596 46.3809 11.7217C46.8014 11.4782 47.0117 11.1047 47.0117 10.6011C47.0117 10.2192 46.8429 9.92871 46.5054 9.72949C46.2896 9.60775 45.8634 9.46663 45.2271 9.30615L44.04 9.00732C43.2819 8.81917 42.723 8.60889 42.3633 8.37646C41.7214 7.97249 41.4004 7.41357 41.4004 6.69971C41.4004 5.85856 41.702 5.1779 42.3052 4.65771C42.9139 4.13753 43.7301 3.87744 44.7539 3.87744C46.0931 3.87744 47.0588 4.27035 47.6509 5.05615C48.0216 5.5542 48.2015 6.09098 48.1904 6.6665H46.7793C46.7516 6.32894 46.6326 6.02181 46.4224 5.74512C46.0793 5.35221 45.4844 5.15576 44.6377 5.15576C44.0732 5.15576 43.6444 5.26367 43.3511 5.47949C43.0633 5.69531 42.9194 5.98031 42.9194 6.33447C42.9194 6.72184 43.1104 7.03174 43.4922 7.26416C43.7135 7.40251 44.04 7.52425 44.4717 7.62939L45.4595 7.87012C46.533 8.13021 47.2524 8.382 47.6177 8.62549C48.1987 9.00732 48.4893 9.60775 48.4893 10.4268C48.4893 11.2181 48.1877 11.9015 47.5845 12.4771C46.9868 13.0526 46.0737 13.3403 44.8452 13.3403C43.5226 13.3403 42.5846 13.0415 42.0312 12.4438C41.4834 11.8407 41.1901 11.0964 41.1514 10.2109H42.5874ZM50.498 1.62793H52.0088V4.10986H53.4282V5.33008H52.0088V11.1323C52.0088 11.4422 52.1139 11.6497 52.3242 11.7549C52.4404 11.8158 52.6341 11.8462 52.9053 11.8462C52.9772 11.8462 53.0547 11.8462 53.1377 11.8462C53.2207 11.8407 53.3175 11.8324 53.4282 11.8213V13C53.2567 13.0498 53.0768 13.0858 52.8887 13.1079C52.7061 13.13 52.5068 13.1411 52.291 13.1411C51.5938 13.1411 51.1206 12.964 50.8716 12.6099C50.6226 12.2502 50.498 11.7853 50.498 11.2153V5.33008H49.2944V4.10986H50.498V1.62793ZM54.9722 4.10986H56.3916V5.64551C56.5078 5.34668 56.7928 4.98421 57.2466 4.55811C57.7004 4.12646 58.2233 3.91064 58.8154 3.91064C58.8431 3.91064 58.8901 3.91341 58.9565 3.91895C59.0229 3.92448 59.1364 3.93555 59.2969 3.95215V5.5293C59.2083 5.5127 59.1253 5.50163 59.0479 5.49609C58.9759 5.49056 58.8957 5.48779 58.8071 5.48779C58.0545 5.48779 57.4762 5.73128 57.0723 6.21826C56.6683 6.69971 56.4663 7.25586 56.4663 7.88672V13H54.9722V4.10986ZM60.019 11.1904H61.7539V13H60.019V11.1904ZM74.4624 0.474121C76.0063 0.474121 77.2044 0.880859 78.0566 1.69434C78.9089 2.50781 79.382 3.43197 79.4761 4.4668H77.8657C77.6831 3.68099 77.3179 3.05843 76.77 2.59912C76.2277 2.13981 75.464 1.91016 74.479 1.91016C73.2782 1.91016 72.307 2.3335 71.5654 3.18018C70.8294 4.02132 70.4614 5.31348 70.4614 7.05664C70.4614 8.48438 70.7935 9.64372 71.4575 10.5347C72.1271 11.4201 73.1232 11.8628 74.4458 11.8628C75.6632 11.8628 76.5902 11.3952 77.2266 10.46C77.5641 9.96745 77.8159 9.31999 77.9819 8.51758H79.5923C79.4484 9.80143 78.9725 10.8778 78.1646 11.7466C77.1961 12.7925 75.8901 13.3154 74.2466 13.3154C72.8299 13.3154 71.6401 12.8866 70.6772 12.0288C69.41 10.8944 68.7764 9.1429 68.7764 6.77441C68.7764 4.97591 69.2523 3.50114 70.2041 2.3501C71.2334 1.09945 72.6528 0.474121 74.4624 0.474121ZM81.4102 0.764648H82.9043V5.31348C83.2585 4.86523 83.5767 4.5498 83.8589 4.36719C84.3403 4.05176 84.9408 3.89404 85.6602 3.89404C86.9495 3.89404 87.8239 4.34505 88.2832 5.24707C88.5322 5.73958 88.6567 6.42301 88.6567 7.29736V13H87.1211V7.39697C87.1211 6.74398 87.0381 6.2653 86.8721 5.96094C86.6009 5.47396 86.0918 5.23047 85.3447 5.23047C84.7249 5.23047 84.1632 5.44352 83.6597 5.86963C83.1561 6.29574 82.9043 7.10091 82.9043 8.28516V13H81.4102V0.764648ZM90.873 4.15137H92.3921V13H90.873V4.15137ZM90.873 0.806152H92.3921V2.49951H90.873V0.806152ZM98.0864 3.85254C99.0881 3.85254 99.9015 4.09603 100.527 4.58301C101.158 5.06999 101.537 5.90837 101.664 7.09814H100.211C100.123 6.55029 99.9209 6.09652 99.6055 5.73682C99.29 5.37158 98.7837 5.18896 98.0864 5.18896C97.1346 5.18896 96.4539 5.65381 96.0444 6.5835C95.7788 7.18669 95.646 7.93099 95.646 8.81641C95.646 9.70736 95.8341 10.4572 96.2104 11.0659C96.5868 11.6746 97.1789 11.979 97.9868 11.979C98.6066 11.979 99.0964 11.7909 99.4561 11.4146C99.8213 11.0327 100.073 10.5125 100.211 9.854H101.664C101.498 11.0327 101.083 11.896 100.419 12.4438C99.7549 12.9862 98.9054 13.2573 97.8706 13.2573C96.7085 13.2573 95.7816 12.834 95.0898 11.9873C94.3981 11.1351 94.0522 10.0726 94.0522 8.7998C94.0522 7.23926 94.4313 6.02458 95.1895 5.15576C95.9476 4.28695 96.9132 3.85254 98.0864 3.85254ZM104.304 10.6343C104.304 11.0659 104.461 11.4062 104.777 11.6553C105.092 11.9043 105.466 12.0288 105.897 12.0288C106.423 12.0288 106.932 11.9071 107.425 11.6636C108.255 11.2596 108.67 10.5983 108.67 9.67969V8.47607C108.487 8.59229 108.252 8.68913 107.964 8.7666C107.677 8.84408 107.394 8.89941 107.118 8.93262L106.213 9.04883C105.671 9.12077 105.264 9.23421 104.993 9.38916C104.533 9.64925 104.304 10.0643 104.304 10.6343ZM107.923 7.61279C108.266 7.56852 108.496 7.42464 108.612 7.18115C108.678 7.04834 108.711 6.85742 108.711 6.6084C108.711 6.09928 108.529 5.73128 108.164 5.50439C107.804 5.27197 107.286 5.15576 106.611 5.15576C105.831 5.15576 105.278 5.36605 104.951 5.78662C104.769 6.01904 104.65 6.36491 104.594 6.82422H103.2C103.227 5.72852 103.582 4.96761 104.262 4.5415C104.948 4.10986 105.743 3.89404 106.645 3.89404C107.69 3.89404 108.54 4.09326 109.193 4.4917C109.84 4.89014 110.164 5.50993 110.164 6.35107V11.4727C110.164 11.6276 110.194 11.7521 110.255 11.8462C110.322 11.9403 110.457 11.9873 110.662 11.9873C110.729 11.9873 110.803 11.9845 110.886 11.979C110.969 11.9679 111.058 11.9541 111.152 11.9375V13.0415C110.919 13.1079 110.742 13.1494 110.621 13.166C110.499 13.1826 110.333 13.1909 110.123 13.1909C109.608 13.1909 109.234 13.0083 109.002 12.6431C108.88 12.4494 108.794 12.1755 108.745 11.8213C108.44 12.2197 108.003 12.5656 107.433 12.8589C106.863 13.1522 106.235 13.2988 105.549 13.2988C104.724 13.2988 104.049 13.0498 103.523 12.5518C103.003 12.0482 102.743 11.4201 102.743 10.6675C102.743 9.84294 103 9.20378 103.515 8.75C104.03 8.29622 104.705 8.01676 105.541 7.91162L107.923 7.61279ZM115.759 3.95215C116.456 3.95215 117.065 4.1237 117.585 4.4668C117.867 4.66048 118.155 4.94271 118.448 5.31348V4.19287H119.826V12.2778C119.826 13.4067 119.66 14.2977 119.328 14.9507C118.708 16.1571 117.538 16.7603 115.817 16.7603C114.86 16.7603 114.054 16.5444 113.401 16.1128C112.748 15.6867 112.383 15.0171 112.306 14.104H113.825C113.897 14.5024 114.041 14.8096 114.256 15.0254C114.594 15.3574 115.125 15.5234 115.85 15.5234C116.996 15.5234 117.745 15.1195 118.1 14.3115C118.31 13.8356 118.407 12.9862 118.39 11.7632C118.091 12.217 117.732 12.5545 117.311 12.7759C116.89 12.9972 116.334 13.1079 115.643 13.1079C114.68 13.1079 113.836 12.7676 113.111 12.0869C112.391 11.4007 112.032 10.269 112.032 8.69189C112.032 7.20329 112.394 6.04118 113.119 5.20557C113.85 4.36995 114.729 3.95215 115.759 3.95215ZM118.448 8.51758C118.448 7.41634 118.221 6.6001 117.768 6.06885C117.314 5.5376 116.736 5.27197 116.033 5.27197C114.981 5.27197 114.262 5.76449 113.875 6.74951C113.67 7.27523 113.567 7.96419 113.567 8.81641C113.567 9.81803 113.769 10.5817 114.173 11.1074C114.583 11.6276 115.131 11.8877 115.817 11.8877C116.89 11.8877 117.646 11.4035 118.083 10.4351C118.326 9.88721 118.448 9.24805 118.448 8.51758ZM125.612 12.0371C126.602 12.0371 127.28 11.6636 127.646 10.9165C128.016 10.1639 128.202 9.32829 128.202 8.40967C128.202 7.57959 128.069 6.90446 127.803 6.38428C127.383 5.56527 126.658 5.15576 125.628 5.15576C124.715 5.15576 124.051 5.50439 123.636 6.20166C123.221 6.89893 123.014 7.74007 123.014 8.7251C123.014 9.67139 123.221 10.46 123.636 11.0908C124.051 11.7217 124.71 12.0371 125.612 12.0371ZM125.67 3.85254C126.815 3.85254 127.784 4.23438 128.575 4.99805C129.367 5.76172 129.762 6.88509 129.762 8.36816C129.762 9.80143 129.414 10.9857 128.716 11.9209C128.019 12.8561 126.937 13.3237 125.471 13.3237C124.248 13.3237 123.277 12.9115 122.557 12.0869C121.838 11.2568 121.478 10.1445 121.478 8.75C121.478 7.25586 121.857 6.06608 122.615 5.18066C123.373 4.29525 124.392 3.85254 125.67 3.85254ZM136.851 0.806152H138.52V13H136.851V0.806152ZM141.051 0.806152H142.545V13H141.051V0.806152ZM144.836 0.806152H146.331V13H144.836V0.806152ZM148.58 4.15137H150.099V13H148.58V4.15137ZM148.58 0.806152H150.099V2.49951H148.58V0.806152ZM152.365 4.10986H153.785V5.37158C154.205 4.8514 154.651 4.47786 155.121 4.25098C155.591 4.02409 156.114 3.91064 156.69 3.91064C157.952 3.91064 158.804 4.35059 159.247 5.23047C159.49 5.71191 159.612 6.40088 159.612 7.29736V13H158.093V7.39697C158.093 6.85465 158.013 6.41748 157.852 6.08545C157.586 5.53206 157.105 5.25537 156.408 5.25537C156.054 5.25537 155.763 5.29134 155.536 5.36328C155.127 5.48503 154.767 5.72852 154.457 6.09375C154.208 6.38704 154.045 6.69141 153.967 7.00684C153.895 7.31673 153.859 7.76221 153.859 8.34326V13H152.365V4.10986ZM165.356 12.0371C166.347 12.0371 167.024 11.6636 167.39 10.9165C167.76 10.1639 167.946 9.32829 167.946 8.40967C167.946 7.57959 167.813 6.90446 167.547 6.38428C167.127 5.56527 166.402 5.15576 165.373 5.15576C164.459 5.15576 163.795 5.50439 163.38 6.20166C162.965 6.89893 162.758 7.74007 162.758 8.7251C162.758 9.67139 162.965 10.46 163.38 11.0908C163.795 11.7217 164.454 12.0371 165.356 12.0371ZM165.414 3.85254C166.56 3.85254 167.528 4.23438 168.319 4.99805C169.111 5.76172 169.506 6.88509 169.506 8.36816C169.506 9.80143 169.158 10.9857 168.46 11.9209C167.763 12.8561 166.681 13.3237 165.215 13.3237C163.992 13.3237 163.021 12.9115 162.301 12.0869C161.582 11.2568 161.222 10.1445 161.222 8.75C161.222 7.25586 161.601 6.06608 162.359 5.18066C163.118 4.29525 164.136 3.85254 165.414 3.85254ZM171.291 4.15137H172.81V13H171.291V4.15137ZM171.291 0.806152H172.81V2.49951H171.291V0.806152ZM175.964 10.2109C176.009 10.709 176.133 11.0908 176.338 11.3564C176.714 11.8379 177.367 12.0786 178.297 12.0786C178.85 12.0786 179.337 11.9596 179.758 11.7217C180.178 11.4782 180.389 11.1047 180.389 10.6011C180.389 10.2192 180.22 9.92871 179.882 9.72949C179.667 9.60775 179.24 9.46663 178.604 9.30615L177.417 9.00732C176.659 8.81917 176.1 8.60889 175.74 8.37646C175.098 7.97249 174.777 7.41357 174.777 6.69971C174.777 5.85856 175.079 5.1779 175.682 4.65771C176.291 4.13753 177.107 3.87744 178.131 3.87744C179.47 3.87744 180.436 4.27035 181.028 5.05615C181.399 5.5542 181.578 6.09098 181.567 6.6665H180.156C180.129 6.32894 180.01 6.02181 179.799 5.74512C179.456 5.35221 178.861 5.15576 178.015 5.15576C177.45 5.15576 177.021 5.26367 176.728 5.47949C176.44 5.69531 176.296 5.98031 176.296 6.33447C176.296 6.72184 176.487 7.03174 176.869 7.26416C177.09 7.40251 177.417 7.52425 177.849 7.62939L178.836 7.87012C179.91 8.13021 180.629 8.382 180.995 8.62549C181.576 9.00732 181.866 9.60775 181.866 10.4268C181.866 11.2181 181.565 11.9015 180.961 12.4771C180.364 13.0526 179.451 13.3403 178.222 13.3403C176.9 13.3403 175.962 13.0415 175.408 12.4438C174.86 11.8407 174.567 11.0964 174.528 10.2109H175.964Z" fill="white"/>
</svg>
