<svg width="294" height="77" viewBox="0 0 294 77" fill="none" xmlns="http://www.w3.org/2000/svg">
<path d="M6.70703 11.1738C7.71973 11.1738 8.52214 10.8003 9.11426 10.0532C9.71191 9.30615 10.0107 8.24365 10.0107 6.86572C10.0107 5.49333 9.71191 4.43359 9.11426 3.68652C8.52214 2.93392 7.71973 2.55762 6.70703 2.55762C5.69434 2.55762 4.88639 2.93115 4.2832 3.67822C3.68001 4.42529 3.37842 5.48779 3.37842 6.86572C3.37842 8.24365 3.68001 9.30615 4.2832 10.0532C4.88639 10.8003 5.69434 11.1738 6.70703 11.1738ZM12.5674 6.86572C12.5674 9.06266 11.9504 10.745 10.7163 11.9126C9.79215 12.8644 8.45573 13.3403 6.70703 13.3403C4.95833 13.3403 3.62191 12.8644 2.69775 11.9126C1.45817 10.745 0.838379 9.06266 0.838379 6.86572C0.838379 4.62451 1.45817 2.94222 2.69775 1.81885C3.62191 0.867025 4.95833 0.391113 6.70703 0.391113C8.45573 0.391113 9.79215 0.867025 10.7163 1.81885C11.9504 2.94222 12.5674 4.62451 12.5674 6.86572ZM16.6929 3.95215V9.40576C16.6929 9.92041 16.7537 10.3078 16.8755 10.5679C17.0913 11.0272 17.5146 11.2568 18.1455 11.2568C18.9535 11.2568 19.5068 10.9303 19.8057 10.2773C19.9606 9.92318 20.0381 9.45557 20.0381 8.87451V3.95215H22.437V13H20.1377V11.7217C20.1156 11.7493 20.0602 11.8324 19.9717 11.9707C19.8831 12.109 19.778 12.2308 19.6562 12.3359C19.2855 12.668 18.9258 12.8949 18.5771 13.0166C18.234 13.1383 17.8301 13.1992 17.3652 13.1992C16.026 13.1992 15.124 12.7178 14.6592 11.7549C14.3991 11.2236 14.269 10.4406 14.269 9.40576V3.95215H16.6929ZM29.6421 3.73633C29.6864 3.73633 29.7223 3.7391 29.75 3.74463C29.7832 3.74463 29.8524 3.7474 29.9575 3.75293V6.17676C29.8081 6.16016 29.6753 6.14909 29.5591 6.14355C29.4429 6.13802 29.3488 6.13525 29.2769 6.13525C28.325 6.13525 27.6859 6.44515 27.3594 7.06494C27.1768 7.41357 27.0854 7.95036 27.0854 8.67529V13H24.7031V3.95215H26.9609V5.5293C27.3262 4.92611 27.6444 4.51383 27.9155 4.29248C28.3582 3.92171 28.9338 3.73633 29.6421 3.73633ZM41.0723 3.71973C41.6312 3.71973 42.1375 3.81657 42.5913 4.01025C43.0506 4.20394 43.4269 4.5 43.7202 4.89844C43.9692 5.236 44.1214 5.58464 44.1768 5.94434C44.2321 6.2985 44.2598 6.87956 44.2598 7.6875V13H41.8442V7.49658C41.8442 7.0096 41.7612 6.6167 41.5952 6.31787C41.3794 5.8973 40.9699 5.68701 40.3667 5.68701C39.7414 5.68701 39.2655 5.8973 38.939 6.31787C38.618 6.73291 38.4575 7.3278 38.4575 8.10254V13H36.1001V0.806152H38.4575V5.13086C38.8006 4.60514 39.1963 4.23991 39.6445 4.03516C40.0983 3.82487 40.5742 3.71973 41.0723 3.71973ZM50.5352 11.3315C51.2269 11.3315 51.7581 11.0853 52.1289 10.5928C52.4997 10.1003 52.6851 9.40023 52.6851 8.49268C52.6851 7.58512 52.4997 6.88786 52.1289 6.40088C51.7581 5.90837 51.2269 5.66211 50.5352 5.66211C49.8434 5.66211 49.3094 5.90837 48.9331 6.40088C48.5623 6.88786 48.377 7.58512 48.377 8.49268C48.377 9.40023 48.5623 10.1003 48.9331 10.5928C49.3094 11.0853 49.8434 11.3315 50.5352 11.3315ZM55.167 8.49268C55.167 9.8208 54.7852 10.958 54.0215 11.9043C53.2578 12.8451 52.0985 13.3154 50.5435 13.3154C48.9884 13.3154 47.8291 12.8451 47.0654 11.9043C46.3018 10.958 45.9199 9.8208 45.9199 8.49268C45.9199 7.18669 46.3018 6.05501 47.0654 5.09766C47.8291 4.1403 48.9884 3.66162 50.5435 3.66162C52.0985 3.66162 53.2578 4.1403 54.0215 5.09766C54.7852 6.05501 55.167 7.18669 55.167 8.49268ZM55.939 5.72021V4.03516H57.2007V1.51172H59.5415V4.03516H61.0107V5.72021H59.5415V10.5015C59.5415 10.8722 59.5885 11.1047 59.6826 11.1987C59.7767 11.2873 60.0645 11.3315 60.5459 11.3315C60.6178 11.3315 60.6925 11.3315 60.77 11.3315C60.853 11.326 60.9333 11.3205 61.0107 11.3149V13.083L59.8901 13.1245C58.7723 13.1632 58.0086 12.9696 57.5991 12.5435C57.3335 12.2723 57.2007 11.8545 57.2007 11.29V5.72021H55.939ZM66.0991 5.66211C65.5513 5.66211 65.1252 5.83366 64.8208 6.17676C64.522 6.51986 64.3338 6.9847 64.2563 7.57129H67.9336C67.8949 6.94596 67.7039 6.47282 67.3608 6.15186C67.0233 5.82536 66.6027 5.66211 66.0991 5.66211ZM66.0991 3.71143C66.8517 3.71143 67.5296 3.85254 68.1328 4.13477C68.736 4.41699 69.234 4.86247 69.627 5.47119C69.9811 6.00798 70.2108 6.63053 70.3159 7.33887C70.3768 7.75391 70.4017 8.35156 70.3906 9.13184H64.1982C64.2314 10.0394 64.5164 10.6758 65.0532 11.041C65.3797 11.2679 65.7726 11.3813 66.2319 11.3813C66.7189 11.3813 67.1146 11.243 67.4189 10.9663C67.585 10.8169 67.7316 10.6094 67.8589 10.3438H70.2744C70.2135 10.8805 69.9341 11.4256 69.436 11.979C68.6613 12.8589 67.5767 13.2988 66.1821 13.2988C65.0311 13.2988 64.0156 12.9281 63.1357 12.1865C62.2559 11.445 61.8159 10.2386 61.8159 8.56738C61.8159 7.0013 62.2116 5.80046 63.0029 4.96484C63.7998 4.12923 64.8319 3.71143 66.0991 3.71143ZM74.4082 13H72.0425V0.764648H74.4082V13ZM83.8877 2.87305H81.4888V0.689941H83.8877V2.87305ZM81.4888 3.95215H83.8877V13H81.4888V3.95215ZM91.2007 3.73633C92.1359 3.73633 92.8996 3.98258 93.4917 4.4751C94.0894 4.96208 94.3882 5.77279 94.3882 6.90723V13H91.9644V7.49658C91.9644 7.02067 91.9007 6.65544 91.7734 6.40088C91.541 5.93604 91.0983 5.70361 90.4453 5.70361C89.6429 5.70361 89.0923 6.04395 88.7935 6.72461C88.6385 7.08431 88.561 7.54362 88.561 8.10254V13H86.2036V3.96875H88.4863V5.28857C88.7907 4.82373 89.0785 4.48893 89.3496 4.28418C89.8366 3.91895 90.4536 3.73633 91.2007 3.73633ZM105.37 11.3315C106.062 11.3315 106.593 11.0853 106.964 10.5928C107.335 10.1003 107.52 9.40023 107.52 8.49268C107.52 7.58512 107.335 6.88786 106.964 6.40088C106.593 5.90837 106.062 5.66211 105.37 5.66211C104.678 5.66211 104.144 5.90837 103.768 6.40088C103.397 6.88786 103.212 7.58512 103.212 8.49268C103.212 9.40023 103.397 10.1003 103.768 10.5928C104.144 11.0853 104.678 11.3315 105.37 11.3315ZM110.002 8.49268C110.002 9.8208 109.62 10.958 108.856 11.9043C108.093 12.8451 106.933 13.3154 105.378 13.3154C103.823 13.3154 102.664 12.8451 101.9 11.9043C101.137 10.958 100.755 9.8208 100.755 8.49268C100.755 7.18669 101.137 6.05501 101.9 5.09766C102.664 4.1403 103.823 3.66162 105.378 3.66162C106.933 3.66162 108.093 4.1403 108.856 5.09766C109.62 6.05501 110.002 7.18669 110.002 8.49268ZM116.717 3.73633C117.653 3.73633 118.416 3.98258 119.008 4.4751C119.606 4.96208 119.905 5.77279 119.905 6.90723V13H117.481V7.49658C117.481 7.02067 117.417 6.65544 117.29 6.40088C117.058 5.93604 116.615 5.70361 115.962 5.70361C115.16 5.70361 114.609 6.04395 114.31 6.72461C114.155 7.08431 114.078 7.54362 114.078 8.10254V13H111.72V3.96875H114.003V5.28857C114.307 4.82373 114.595 4.48893 114.866 4.28418C115.353 3.91895 115.97 3.73633 116.717 3.73633ZM125.898 5.72021V4.03516H127.16V1.51172H129.5V4.03516H130.97V5.72021H129.5V10.5015C129.5 10.8722 129.548 11.1047 129.642 11.1987C129.736 11.2873 130.023 11.3315 130.505 11.3315C130.577 11.3315 130.652 11.3315 130.729 11.3315C130.812 11.326 130.892 11.3205 130.97 11.3149V13.083L129.849 13.1245C128.731 13.1632 127.968 12.9696 127.558 12.5435C127.292 12.2723 127.16 11.8545 127.16 11.29V5.72021H125.898ZM136.058 5.66211C135.51 5.66211 135.084 5.83366 134.78 6.17676C134.481 6.51986 134.293 6.9847 134.215 7.57129H137.893C137.854 6.94596 137.663 6.47282 137.32 6.15186C136.982 5.82536 136.562 5.66211 136.058 5.66211ZM136.058 3.71143C136.811 3.71143 137.489 3.85254 138.092 4.13477C138.695 4.41699 139.193 4.86247 139.586 5.47119C139.94 6.00798 140.17 6.63053 140.275 7.33887C140.336 7.75391 140.361 8.35156 140.35 9.13184H134.157C134.19 10.0394 134.475 10.6758 135.012 11.041C135.339 11.2679 135.732 11.3813 136.191 11.3813C136.678 11.3813 137.074 11.243 137.378 10.9663C137.544 10.8169 137.691 10.6094 137.818 10.3438H140.233C140.173 10.8805 139.893 11.4256 139.395 11.979C138.62 12.8589 137.536 13.2988 136.141 13.2988C134.99 13.2988 133.975 12.9281 133.095 12.1865C132.215 11.445 131.775 10.2386 131.775 8.56738C131.775 7.0013 132.171 5.80046 132.962 4.96484C133.759 4.12923 134.791 3.71143 136.058 3.71143ZM146.94 3.71973C147.499 3.71973 148.006 3.81657 148.459 4.01025C148.919 4.20394 149.295 4.5 149.588 4.89844C149.837 5.236 149.99 5.58464 150.045 5.94434C150.1 6.2985 150.128 6.87956 150.128 7.6875V13H147.712V7.49658C147.712 7.0096 147.629 6.6167 147.463 6.31787C147.248 5.8973 146.838 5.68701 146.235 5.68701C145.61 5.68701 145.134 5.8973 144.807 6.31787C144.486 6.73291 144.326 7.3278 144.326 8.10254V13H141.968V0.806152H144.326V5.13086C144.669 4.60514 145.064 4.23991 145.513 4.03516C145.966 3.82487 146.442 3.71973 146.94 3.71973ZM162.064 3.71973C162.623 3.71973 163.13 3.81657 163.583 4.01025C164.043 4.20394 164.419 4.5 164.712 4.89844C164.961 5.236 165.114 5.58464 165.169 5.94434C165.224 6.2985 165.252 6.87956 165.252 7.6875V13H162.836V7.49658C162.836 7.0096 162.753 6.6167 162.587 6.31787C162.372 5.8973 161.962 5.68701 161.359 5.68701C160.734 5.68701 160.258 5.8973 159.931 6.31787C159.61 6.73291 159.45 7.3278 159.45 8.10254V13H157.092V0.806152H159.45V5.13086C159.793 4.60514 160.188 4.23991 160.637 4.03516C161.09 3.82487 161.566 3.71973 162.064 3.71973ZM169.826 3.95215V9.40576C169.826 9.92041 169.887 10.3078 170.008 10.5679C170.224 11.0272 170.647 11.2568 171.278 11.2568C172.086 11.2568 172.64 10.9303 172.938 10.2773C173.093 9.92318 173.171 9.45557 173.171 8.87451V3.95215H175.57V13H173.271V11.7217C173.248 11.7493 173.193 11.8324 173.104 11.9707C173.016 12.109 172.911 12.2308 172.789 12.3359C172.418 12.668 172.059 12.8949 171.71 13.0166C171.367 13.1383 170.963 13.1992 170.498 13.1992C169.159 13.1992 168.257 12.7178 167.792 11.7549C167.532 11.2236 167.402 10.4406 167.402 9.40576V3.95215H169.826ZM181.746 11.0576C182.299 11.0576 182.767 10.8501 183.148 10.4351C183.53 10.0145 183.721 9.34766 183.721 8.43457C183.721 7.57682 183.539 6.92383 183.173 6.47559C182.814 6.02734 182.329 5.80322 181.721 5.80322C180.891 5.80322 180.318 6.19336 180.002 6.97363C179.836 7.38867 179.753 7.90055 179.753 8.50928C179.753 9.03499 179.842 9.5026 180.019 9.91211C180.34 10.6758 180.916 11.0576 181.746 11.0576ZM181.156 3.73633C181.61 3.73633 182.006 3.8055 182.343 3.94385C182.919 4.1818 183.384 4.61898 183.738 5.25537V3.95215H186.037V12.5352C186.037 13.7028 185.841 14.5827 185.448 15.1748C184.773 16.193 183.478 16.7021 181.563 16.7021C180.406 16.7021 179.463 16.4753 178.732 16.0215C178.002 15.5677 177.598 14.8898 177.521 13.9878H180.094C180.16 14.2645 180.268 14.4637 180.417 14.5854C180.672 14.8013 181.101 14.9092 181.704 14.9092C182.556 14.9092 183.126 14.6242 183.414 14.0542C183.602 13.689 183.696 13.0747 183.696 12.2114V11.6304C183.469 12.0177 183.226 12.3083 182.966 12.502C182.495 12.8617 181.884 13.0415 181.131 13.0415C179.969 13.0415 179.04 12.6348 178.342 11.8213C177.651 11.0023 177.305 9.89551 177.305 8.50098C177.305 7.15625 177.639 6.02734 178.309 5.11426C178.979 4.19564 179.928 3.73633 181.156 3.73633ZM191.823 5.66211C191.275 5.66211 190.849 5.83366 190.544 6.17676C190.246 6.51986 190.057 6.9847 189.98 7.57129H193.657C193.618 6.94596 193.428 6.47282 193.084 6.15186C192.747 5.82536 192.326 5.66211 191.823 5.66211ZM191.823 3.71143C192.575 3.71143 193.253 3.85254 193.856 4.13477C194.46 4.41699 194.958 4.86247 195.351 5.47119C195.705 6.00798 195.934 6.63053 196.04 7.33887C196.1 7.75391 196.125 8.35156 196.114 9.13184H189.922C189.955 10.0394 190.24 10.6758 190.777 11.041C191.103 11.2679 191.496 11.3813 191.956 11.3813C192.443 11.3813 192.838 11.243 193.143 10.9663C193.309 10.8169 193.455 10.6094 193.583 10.3438H195.998C195.937 10.8805 195.658 11.4256 195.16 11.979C194.385 12.8589 193.3 13.2988 191.906 13.2988C190.755 13.2988 189.739 12.9281 188.859 12.1865C187.979 11.445 187.54 10.2386 187.54 8.56738C187.54 7.0013 187.935 5.80046 188.727 4.96484C189.523 4.12923 190.556 3.71143 191.823 3.71143ZM206.283 11.2568C207.096 11.2568 207.674 10.9082 208.018 10.2109C208.239 9.75163 208.35 9.17057 208.35 8.46777C208.35 7.91439 208.256 7.41911 208.067 6.98193C207.73 6.19613 207.138 5.80322 206.291 5.80322C205.693 5.80322 205.212 6.03288 204.847 6.49219C204.487 6.9515 204.307 7.64876 204.307 8.58398C204.307 9.20931 204.39 9.72119 204.556 10.1196C204.866 10.8778 205.442 11.2568 206.283 11.2568ZM205.685 3.71973C206.438 3.71973 207.046 3.90511 207.511 4.27588C207.782 4.48617 208.059 4.83203 208.341 5.31348V3.96875H210.624V16.5859H208.283V11.8794C208.106 12.2446 207.802 12.5711 207.37 12.8589C206.944 13.1411 206.36 13.2822 205.619 13.2822C204.573 13.2822 203.682 12.8644 202.946 12.0288C202.21 11.1932 201.842 10.0781 201.842 8.68359C201.842 7.17839 202.21 5.97477 202.946 5.07275C203.687 4.17074 204.6 3.71973 205.685 3.71973ZM215.198 3.95215V9.40576C215.198 9.92041 215.259 10.3078 215.38 10.5679C215.596 11.0272 216.02 11.2568 216.65 11.2568C217.458 11.2568 218.012 10.9303 218.311 10.2773C218.465 9.92318 218.543 9.45557 218.543 8.87451V3.95215H220.942V13H218.643V11.7217C218.62 11.7493 218.565 11.8324 218.477 11.9707C218.388 12.109 218.283 12.2308 218.161 12.3359C217.79 12.668 217.431 12.8949 217.082 13.0166C216.739 13.1383 216.335 13.1992 215.87 13.1992C214.531 13.1992 213.629 12.7178 213.164 11.7549C212.904 11.2236 212.774 10.4406 212.774 9.40576V3.95215H215.198ZM228.222 8.60059C228.072 8.69466 227.92 8.77214 227.765 8.83301C227.616 8.88835 227.408 8.94092 227.143 8.99072L226.611 9.09033C226.113 9.17887 225.756 9.28678 225.541 9.41406C225.175 9.62988 224.993 9.96468 224.993 10.4185C224.993 10.8224 225.103 11.1157 225.325 11.2983C225.552 11.4754 225.826 11.564 226.146 11.564C226.656 11.564 227.123 11.4146 227.549 11.1157C227.981 10.8169 228.205 10.2718 228.222 9.48047V8.60059ZM226.786 7.49658C227.223 7.44124 227.535 7.37207 227.724 7.28906C228.061 7.14518 228.23 6.92106 228.23 6.6167C228.23 6.24593 228.1 5.99137 227.84 5.85303C227.585 5.70915 227.209 5.63721 226.711 5.63721C226.152 5.63721 225.756 5.77555 225.524 6.05225C225.358 6.257 225.247 6.53369 225.192 6.88232H222.909C222.959 6.09098 223.18 5.44076 223.573 4.93164C224.199 4.13477 225.272 3.73633 226.794 3.73633C227.785 3.73633 228.664 3.93278 229.434 4.32568C230.203 4.71859 230.587 5.46012 230.587 6.55029V10.7007C230.587 10.9884 230.593 11.3371 230.604 11.7466C230.621 12.0565 230.668 12.2668 230.745 12.3774C230.823 12.4881 230.939 12.5794 231.094 12.6514V13H228.521C228.449 12.8174 228.399 12.6458 228.371 12.4854C228.343 12.3249 228.321 12.1423 228.305 11.9375C227.978 12.2917 227.602 12.5933 227.176 12.8423C226.667 13.1356 226.091 13.2822 225.449 13.2822C224.63 13.2822 223.952 13.0498 223.416 12.585C222.884 12.1146 222.619 11.4505 222.619 10.5928C222.619 9.48047 223.048 8.67529 223.905 8.17725C224.376 7.90609 225.067 7.7124 225.98 7.59619L226.786 7.49658ZM235.111 13H232.746V0.764648H235.111V13ZM239.859 2.87305H237.46V0.689941H239.859V2.87305ZM237.46 3.95215H239.859V13H237.46V3.95215ZM241.229 5.72021V4.03516H242.491V1.51172H244.832V4.03516H246.301V5.72021H244.832V10.5015C244.832 10.8722 244.879 11.1047 244.973 11.1987C245.067 11.2873 245.354 11.3315 245.836 11.3315C245.908 11.3315 245.983 11.3315 246.06 11.3315C246.143 11.326 246.223 11.3205 246.301 11.3149V13.083L245.18 13.1245C244.062 13.1632 243.299 12.9696 242.889 12.5435C242.624 12.2723 242.491 11.8545 242.491 11.29V5.72021H241.229ZM248.185 14.7349L248.484 14.7515C248.716 14.7625 248.938 14.7542 249.148 14.7266C249.358 14.6989 249.535 14.6353 249.679 14.5356C249.818 14.4416 249.945 14.2451 250.061 13.9463C250.183 13.6475 250.233 13.4648 250.21 13.3984L246.89 3.95215H249.521L251.497 10.626L253.365 3.95215H255.88L252.775 12.8506C252.178 14.5661 251.705 15.6286 251.356 16.0381C251.007 16.4531 250.31 16.6606 249.264 16.6606C249.054 16.6606 248.885 16.6579 248.758 16.6523C248.631 16.6523 248.44 16.644 248.185 16.6274V14.7349ZM6.09277 28.6006C5.94336 28.6947 5.79118 28.7721 5.63623 28.833C5.48682 28.8883 5.2793 28.9409 5.01367 28.9907L4.48242 29.0903C3.98438 29.1789 3.62744 29.2868 3.41162 29.4141C3.04639 29.6299 2.86377 29.9647 2.86377 30.4185C2.86377 30.8224 2.97445 31.1157 3.1958 31.2983C3.42269 31.4754 3.69661 31.564 4.01758 31.564C4.52669 31.564 4.9943 31.4146 5.42041 31.1157C5.85205 30.8169 6.07617 30.2718 6.09277 29.4805V28.6006ZM4.65674 27.4966C5.09391 27.4412 5.40658 27.3721 5.59473 27.2891C5.93229 27.1452 6.10107 26.9211 6.10107 26.6167C6.10107 26.2459 5.97103 25.9914 5.71094 25.853C5.45638 25.7091 5.08008 25.6372 4.58203 25.6372C4.02311 25.6372 3.62744 25.7756 3.39502 26.0522C3.229 26.257 3.11833 26.5337 3.06299 26.8823H0.780273C0.830078 26.091 1.05143 25.4408 1.44434 24.9316C2.06966 24.1348 3.14323 23.7363 4.66504 23.7363C5.6556 23.7363 6.53548 23.9328 7.30469 24.3257C8.07389 24.7186 8.4585 25.4601 8.4585 26.5503V30.7007C8.4585 30.9884 8.46403 31.3371 8.4751 31.7466C8.4917 32.0565 8.53874 32.2668 8.61621 32.3774C8.69368 32.4881 8.8099 32.5794 8.96484 32.6514V33H6.3916C6.31966 32.8174 6.26986 32.6458 6.24219 32.4854C6.21452 32.3249 6.19238 32.1423 6.17578 31.9375C5.84928 32.2917 5.47298 32.5933 5.04688 32.8423C4.53776 33.1356 3.96224 33.2822 3.32031 33.2822C2.5013 33.2822 1.8234 33.0498 1.28662 32.585C0.755371 32.1146 0.489746 31.4505 0.489746 30.5928C0.489746 29.4805 0.91862 28.6753 1.77637 28.1772C2.24674 27.9061 2.93848 27.7124 3.85156 27.5962L4.65674 27.4966ZM15.5806 23.7363C16.5158 23.7363 17.2795 23.9826 17.8716 24.4751C18.4692 24.9621 18.7681 25.7728 18.7681 26.9072V33H16.3442V27.4966C16.3442 27.0207 16.2806 26.6554 16.1533 26.4009C15.9209 25.936 15.4782 25.7036 14.8252 25.7036C14.0228 25.7036 13.4722 26.0439 13.1733 26.7246C13.0184 27.0843 12.9409 27.5436 12.9409 28.1025V33H10.5835V23.9688H12.8662V25.2886C13.1706 24.8237 13.4583 24.4889 13.7295 24.2842C14.2165 23.9189 14.8335 23.7363 15.5806 23.7363ZM24.2964 23.7363C24.8442 23.7363 25.3312 23.8581 25.7573 24.1016C26.1834 24.3395 26.5293 24.6715 26.7949 25.0977V20.7812H29.1938V33H26.8945V31.7466C26.557 32.2834 26.1724 32.6735 25.7407 32.917C25.3091 33.1605 24.7723 33.2822 24.1304 33.2822C23.0734 33.2822 22.1825 32.8561 21.4575 32.0039C20.7381 31.1462 20.3784 30.0477 20.3784 28.7085C20.3784 27.1646 20.7326 25.9499 21.4409 25.0645C22.1548 24.179 23.1066 23.7363 24.2964 23.7363ZM24.811 31.29C25.4806 31.29 25.9897 31.041 26.3384 30.543C26.687 30.0449 26.8613 29.4002 26.8613 28.6089C26.8613 27.5021 26.5819 26.7108 26.0229 26.2349C25.6799 25.9471 25.2814 25.8032 24.8276 25.8032C24.1359 25.8032 23.6268 26.0661 23.3003 26.5918C22.9793 27.112 22.8188 27.7594 22.8188 28.5342C22.8188 29.3698 22.9821 30.0394 23.3086 30.543C23.6406 31.041 24.1414 31.29 24.811 31.29ZM42.3174 28.4761C42.3174 27.7788 42.1569 27.1618 41.8359 26.625C41.5205 26.0882 41.0059 25.8198 40.292 25.8198C39.4342 25.8198 38.8449 26.2266 38.5239 27.04C38.3579 27.4717 38.2749 28.0195 38.2749 28.6836C38.2749 29.735 38.5544 30.4738 39.1133 30.8999C39.4453 31.1489 39.8382 31.2734 40.292 31.2734C40.9505 31.2734 41.4513 31.0189 41.7944 30.5098C42.1431 30.0007 42.3174 29.3228 42.3174 28.4761ZM40.9727 23.7529C42.0296 23.7529 42.9233 24.1431 43.6538 24.9233C44.3898 25.7036 44.7578 26.8491 44.7578 28.3599C44.7578 29.9536 44.3981 31.1683 43.6787 32.0039C42.9648 32.8395 42.0435 33.2573 40.9146 33.2573C40.1951 33.2573 39.5975 33.0775 39.1216 32.7178C38.8615 32.5186 38.6069 32.228 38.3579 31.8462V36.561H36.0171V23.9521H38.2832V25.2886C38.5378 24.8957 38.8089 24.5858 39.0967 24.3589C39.6224 23.9549 40.2477 23.7529 40.9727 23.7529ZM51.3901 23.7363C51.4344 23.7363 51.4704 23.7391 51.498 23.7446C51.5312 23.7446 51.6004 23.7474 51.7056 23.7529V26.1768C51.5562 26.1602 51.4233 26.1491 51.3071 26.1436C51.1909 26.138 51.0968 26.1353 51.0249 26.1353C50.0731 26.1353 49.4339 26.4451 49.1074 27.0649C48.9248 27.4136 48.8335 27.9504 48.8335 28.6753V33H46.4512V23.9521H48.709V25.5293C49.0742 24.9261 49.3924 24.5138 49.6636 24.2925C50.1063 23.9217 50.6818 23.7363 51.3901 23.7363ZM57.1592 31.3315C57.8509 31.3315 58.3822 31.0853 58.7529 30.5928C59.1237 30.1003 59.3091 29.4002 59.3091 28.4927C59.3091 27.5851 59.1237 26.8879 58.7529 26.4009C58.3822 25.9084 57.8509 25.6621 57.1592 25.6621C56.4674 25.6621 55.9334 25.9084 55.5571 26.4009C55.1864 26.8879 55.001 27.5851 55.001 28.4927C55.001 29.4002 55.1864 30.1003 55.5571 30.5928C55.9334 31.0853 56.4674 31.3315 57.1592 31.3315ZM61.791 28.4927C61.791 29.8208 61.4092 30.958 60.6455 31.9043C59.8818 32.8451 58.7225 33.3154 57.1675 33.3154C55.6125 33.3154 54.4531 32.8451 53.6895 31.9043C52.9258 30.958 52.5439 29.8208 52.5439 28.4927C52.5439 27.1867 52.9258 26.055 53.6895 25.0977C54.4531 24.1403 55.6125 23.6616 57.1675 23.6616C58.7225 23.6616 59.8818 24.1403 60.6455 25.0977C61.4092 26.055 61.791 27.1867 61.791 28.4927ZM66.8296 20.6401C66.979 20.6401 67.1146 20.6457 67.2363 20.6567C67.3581 20.6623 67.5241 20.6733 67.7344 20.6899V22.6157C67.6016 22.5991 67.3774 22.5881 67.062 22.5825C66.7521 22.5715 66.5363 22.6406 66.4146 22.79C66.2983 22.9339 66.2402 23.0944 66.2402 23.2715C66.2402 23.4486 66.2402 23.7031 66.2402 24.0352H67.7925V25.7036H66.2402V33H63.8828V25.7036H62.563V24.0352H63.8579V23.4541C63.8579 22.4857 64.0212 21.8188 64.3477 21.4536C64.6908 20.9113 65.5181 20.6401 66.8296 20.6401ZM72.4907 20.6401C72.6401 20.6401 72.7757 20.6457 72.8975 20.6567C73.0192 20.6623 73.1852 20.6733 73.3955 20.6899V22.6157C73.2627 22.5991 73.0386 22.5881 72.7231 22.5825C72.4132 22.5715 72.1974 22.6406 72.0757 22.79C71.9595 22.9339 71.9014 23.0944 71.9014 23.2715C71.9014 23.4486 71.9014 23.7031 71.9014 24.0352H73.4536V25.7036H71.9014V33H69.5439V25.7036H68.2241V24.0352H69.519V23.4541C69.519 22.4857 69.6823 21.8188 70.0088 21.4536C70.3519 20.9113 71.1792 20.6401 72.4907 20.6401ZM78.3843 25.6621C77.8364 25.6621 77.4103 25.8337 77.106 26.1768C76.8071 26.5199 76.619 26.9847 76.5415 27.5713H80.2188C80.18 26.946 79.9891 26.4728 79.646 26.1519C79.3084 25.8254 78.8879 25.6621 78.3843 25.6621ZM78.3843 23.7114C79.1369 23.7114 79.8148 23.8525 80.418 24.1348C81.0212 24.417 81.5192 24.8625 81.9121 25.4712C82.2663 26.008 82.4959 26.6305 82.6011 27.3389C82.6619 27.7539 82.6868 28.3516 82.6758 29.1318H76.4834C76.5166 30.0394 76.8016 30.6758 77.3384 31.041C77.6649 31.2679 78.0578 31.3813 78.5171 31.3813C79.0041 31.3813 79.3997 31.243 79.7041 30.9663C79.8701 30.8169 80.0168 30.6094 80.144 30.3438H82.5596C82.4987 30.8805 82.2192 31.4256 81.7212 31.979C80.9465 32.8589 79.8618 33.2988 78.4673 33.2988C77.3162 33.2988 76.3008 32.9281 75.4209 32.1865C74.541 31.445 74.1011 30.2386 74.1011 28.5674C74.1011 27.0013 74.4967 25.8005 75.2881 24.9648C76.085 24.1292 77.117 23.7114 78.3843 23.7114ZM86.1206 30.1113C86.1704 30.5319 86.2783 30.8307 86.4443 31.0078C86.7376 31.3232 87.2799 31.481 88.0713 31.481C88.5361 31.481 88.9041 31.4118 89.1753 31.2734C89.452 31.1351 89.5903 30.9276 89.5903 30.6509C89.5903 30.3853 89.4797 30.1833 89.2583 30.0449C89.0369 29.9066 88.2152 29.6686 86.793 29.3311C85.7692 29.0765 85.047 28.7583 84.6265 28.3765C84.2059 28.0002 83.9956 27.4578 83.9956 26.7495C83.9956 25.9139 84.3221 25.1973 84.9751 24.5996C85.6336 23.9964 86.5578 23.6948 87.7476 23.6948C88.8765 23.6948 89.7951 23.9217 90.5034 24.3755C91.2173 24.8237 91.6268 25.6012 91.7319 26.708H89.3662C89.333 26.4036 89.2472 26.1629 89.1089 25.9858C88.8488 25.6649 88.4061 25.5044 87.7808 25.5044C87.2661 25.5044 86.8981 25.5846 86.6768 25.7451C86.4609 25.9056 86.353 26.0938 86.353 26.3096C86.353 26.5807 86.4692 26.7772 86.7017 26.8989C86.9341 27.0262 87.7559 27.2448 89.167 27.5547C90.1077 27.776 90.8133 28.1108 91.2837 28.5591C91.7485 29.0129 91.981 29.5801 91.981 30.2607C91.981 31.1572 91.6462 31.8905 90.9766 32.4604C90.3125 33.0249 89.2832 33.3071 87.8887 33.3071C86.4665 33.3071 85.415 33.0083 84.7344 32.4106C84.0592 31.8075 83.7217 31.041 83.7217 30.1113H86.1206ZM96.1729 22.873H93.7739V20.6899H96.1729V22.873ZM93.7739 23.9521H96.1729V33H93.7739V23.9521ZM102.531 31.3315C103.223 31.3315 103.754 31.0853 104.125 30.5928C104.496 30.1003 104.681 29.4002 104.681 28.4927C104.681 27.5851 104.496 26.8879 104.125 26.4009C103.754 25.9084 103.223 25.6621 102.531 25.6621C101.84 25.6621 101.306 25.9084 100.929 26.4009C100.558 26.8879 100.373 27.5851 100.373 28.4927C100.373 29.4002 100.558 30.1003 100.929 30.5928C101.306 31.0853 101.84 31.3315 102.531 31.3315ZM107.163 28.4927C107.163 29.8208 106.781 30.958 106.018 31.9043C105.254 32.8451 104.095 33.3154 102.54 33.3154C100.985 33.3154 99.8252 32.8451 99.0615 31.9043C98.2979 30.958 97.916 29.8208 97.916 28.4927C97.916 27.1867 98.2979 26.055 99.0615 25.0977C99.8252 24.1403 100.985 23.6616 102.54 23.6616C104.095 23.6616 105.254 24.1403 106.018 25.0977C106.781 26.055 107.163 27.1867 107.163 28.4927ZM113.878 23.7363C114.814 23.7363 115.577 23.9826 116.169 24.4751C116.767 24.9621 117.066 25.7728 117.066 26.9072V33H114.642V27.4966C114.642 27.0207 114.578 26.6554 114.451 26.4009C114.219 25.936 113.776 25.7036 113.123 25.7036C112.321 25.7036 111.77 26.0439 111.471 26.7246C111.316 27.0843 111.239 27.5436 111.239 28.1025V33H108.881V23.9688H111.164V25.2886C111.468 24.8237 111.756 24.4889 112.027 24.2842C112.514 23.9189 113.131 23.7363 113.878 23.7363ZM124.246 28.6006C124.097 28.6947 123.944 28.7721 123.79 28.833C123.64 28.8883 123.433 28.9409 123.167 28.9907L122.636 29.0903C122.138 29.1789 121.781 29.2868 121.565 29.4141C121.2 29.6299 121.017 29.9647 121.017 30.4185C121.017 30.8224 121.128 31.1157 121.349 31.2983C121.576 31.4754 121.85 31.564 122.171 31.564C122.68 31.564 123.148 31.4146 123.574 31.1157C124.005 30.8169 124.229 30.2718 124.246 29.4805V28.6006ZM122.81 27.4966C123.247 27.4412 123.56 27.3721 123.748 27.2891C124.086 27.1452 124.254 26.9211 124.254 26.6167C124.254 26.2459 124.124 25.9914 123.864 25.853C123.61 25.7091 123.233 25.6372 122.735 25.6372C122.176 25.6372 121.781 25.7756 121.548 26.0522C121.382 26.257 121.272 26.5337 121.216 26.8823H118.934C118.983 26.091 119.205 25.4408 119.598 24.9316C120.223 24.1348 121.297 23.7363 122.818 23.7363C123.809 23.7363 124.689 23.9328 125.458 24.3257C126.227 24.7186 126.612 25.4601 126.612 26.5503V30.7007C126.612 30.9884 126.617 31.3371 126.628 31.7466C126.645 32.0565 126.692 32.2668 126.77 32.3774C126.847 32.4881 126.963 32.5794 127.118 32.6514V33H124.545C124.473 32.8174 124.423 32.6458 124.396 32.4854C124.368 32.3249 124.346 32.1423 124.329 31.9375C124.003 32.2917 123.626 32.5933 123.2 32.8423C122.691 33.1356 122.116 33.2822 121.474 33.2822C120.655 33.2822 119.977 33.0498 119.44 32.585C118.909 32.1146 118.643 31.4505 118.643 30.5928C118.643 29.4805 119.072 28.6753 119.93 28.1772C120.4 27.9061 121.092 27.7124 122.005 27.5962L122.81 27.4966ZM131.136 33H128.77V20.7646H131.136V33ZM135.884 22.873H133.485V20.6899H135.884V22.873ZM133.485 23.9521H135.884V33H133.485V23.9521ZM140.026 30.1113C140.076 30.5319 140.184 30.8307 140.35 31.0078C140.643 31.3232 141.185 31.481 141.977 31.481C142.441 31.481 142.809 31.4118 143.081 31.2734C143.357 31.1351 143.496 30.9276 143.496 30.6509C143.496 30.3853 143.385 30.1833 143.164 30.0449C142.942 29.9066 142.12 29.6686 140.698 29.3311C139.674 29.0765 138.952 28.7583 138.532 28.3765C138.111 28.0002 137.901 27.4578 137.901 26.7495C137.901 25.9139 138.227 25.1973 138.88 24.5996C139.539 23.9964 140.463 23.6948 141.653 23.6948C142.782 23.6948 143.7 23.9217 144.409 24.3755C145.123 24.8237 145.532 25.6012 145.637 26.708H143.271C143.238 26.4036 143.153 26.1629 143.014 25.9858C142.754 25.6649 142.311 25.5044 141.686 25.5044C141.171 25.5044 140.803 25.5846 140.582 25.7451C140.366 25.9056 140.258 26.0938 140.258 26.3096C140.258 26.5807 140.375 26.7772 140.607 26.8989C140.839 27.0262 141.661 27.2448 143.072 27.5547C144.013 27.776 144.719 28.1108 145.189 28.5591C145.654 29.0129 145.886 29.5801 145.886 30.2607C145.886 31.1572 145.551 31.8905 144.882 32.4604C144.218 33.0249 143.188 33.3071 141.794 33.3071C140.372 33.3071 139.32 33.0083 138.64 32.4106C137.965 31.8075 137.627 31.041 137.627 30.1113H140.026ZM157.756 23.7529C158.155 23.7529 158.548 23.8304 158.935 23.9854C159.322 24.1403 159.674 24.4115 159.989 24.7988C160.244 25.1143 160.415 25.5016 160.504 25.9609C160.559 26.2653 160.587 26.7108 160.587 27.2974L160.57 33H158.146V27.2393C158.146 26.8962 158.091 26.6139 157.98 26.3926C157.77 25.972 157.383 25.7617 156.818 25.7617C156.165 25.7617 155.714 26.0329 155.465 26.5752C155.338 26.863 155.274 27.2088 155.274 27.6128V33H152.892V27.6128C152.892 27.076 152.837 26.6859 152.726 26.4424C152.527 26.0052 152.137 25.7866 151.556 25.7866C150.881 25.7866 150.427 26.0052 150.194 26.4424C150.067 26.6914 150.003 27.0622 150.003 27.5547V33H147.604V23.9688H149.904V25.2886C150.197 24.8182 150.474 24.4834 150.734 24.2842C151.193 23.93 151.788 23.7529 152.519 23.7529C153.21 23.7529 153.769 23.9051 154.195 24.2095C154.538 24.4917 154.799 24.8542 154.976 25.2969C155.285 24.7656 155.67 24.3755 156.129 24.1265C156.616 23.8774 157.159 23.7529 157.756 23.7529ZM172.49 28.6006C172.341 28.6947 172.189 28.7721 172.034 28.833C171.884 28.8883 171.677 28.9409 171.411 28.9907L170.88 29.0903C170.382 29.1789 170.025 29.2868 169.809 29.4141C169.444 29.6299 169.261 29.9647 169.261 30.4185C169.261 30.8224 169.372 31.1157 169.593 31.2983C169.82 31.4754 170.094 31.564 170.415 31.564C170.924 31.564 171.392 31.4146 171.818 31.1157C172.25 30.8169 172.474 30.2718 172.49 29.4805V28.6006ZM171.054 27.4966C171.491 27.4412 171.804 27.3721 171.992 27.2891C172.33 27.1452 172.499 26.9211 172.499 26.6167C172.499 26.2459 172.368 25.9914 172.108 25.853C171.854 25.7091 171.478 25.6372 170.979 25.6372C170.421 25.6372 170.025 25.7756 169.792 26.0522C169.626 26.257 169.516 26.5337 169.46 26.8823H167.178C167.228 26.091 167.449 25.4408 167.842 24.9316C168.467 24.1348 169.541 23.7363 171.062 23.7363C172.053 23.7363 172.933 23.9328 173.702 24.3257C174.471 24.7186 174.856 25.4601 174.856 26.5503V30.7007C174.856 30.9884 174.861 31.3371 174.873 31.7466C174.889 32.0565 174.936 32.2668 175.014 32.3774C175.091 32.4881 175.207 32.5794 175.362 32.6514V33H172.789C172.717 32.8174 172.667 32.6458 172.64 32.4854C172.612 32.3249 172.59 32.1423 172.573 31.9375C172.247 32.2917 171.87 32.5933 171.444 32.8423C170.935 33.1356 170.36 33.2822 169.718 33.2822C168.899 33.2822 168.221 33.0498 167.684 32.585C167.153 32.1146 166.887 31.4505 166.887 30.5928C166.887 29.4805 167.316 28.6753 168.174 28.1772C168.644 27.9061 169.336 27.7124 170.249 27.5962L171.054 27.4966ZM181.978 23.7363C182.913 23.7363 183.677 23.9826 184.269 24.4751C184.867 24.9621 185.166 25.7728 185.166 26.9072V33H182.742V27.4966C182.742 27.0207 182.678 26.6554 182.551 26.4009C182.318 25.936 181.876 25.7036 181.223 25.7036C180.42 25.7036 179.87 26.0439 179.571 26.7246C179.416 27.0843 179.338 27.5436 179.338 28.1025V33H176.981V23.9688H179.264V25.2886C179.568 24.8237 179.856 24.4889 180.127 24.2842C180.614 23.9189 181.231 23.7363 181.978 23.7363ZM190.694 23.7363C191.242 23.7363 191.729 23.8581 192.155 24.1016C192.581 24.3395 192.927 24.6715 193.192 25.0977V20.7812H195.591V33H193.292V31.7466C192.954 32.2834 192.57 32.6735 192.138 32.917C191.707 33.1605 191.17 33.2822 190.528 33.2822C189.471 33.2822 188.58 32.8561 187.855 32.0039C187.136 31.1462 186.776 30.0477 186.776 28.7085C186.776 27.1646 187.13 25.9499 187.838 25.0645C188.552 24.179 189.504 23.7363 190.694 23.7363ZM191.208 31.29C191.878 31.29 192.387 31.041 192.736 30.543C193.084 30.0449 193.259 29.4002 193.259 28.6089C193.259 27.5021 192.979 26.7108 192.42 26.2349C192.077 25.9471 191.679 25.8032 191.225 25.8032C190.533 25.8032 190.024 26.0661 189.698 26.5918C189.377 27.112 189.216 27.7594 189.216 28.5342C189.216 29.3698 189.38 30.0394 189.706 30.543C190.038 31.041 190.539 31.29 191.208 31.29ZM206.748 23.9521H209.146L210.524 30.4683L211.936 23.9521H214.401L211.778 33H209.346L207.926 26.4092L206.49 33H204.033L201.493 23.9521H204.033L205.444 30.4434L206.748 23.9521ZM218.145 22.873H215.746V20.6899H218.145V22.873ZM215.746 23.9521H218.145V33H215.746V23.9521ZM219.514 25.7202V24.0352H220.776V21.5117H223.117V24.0352H224.586V25.7202H223.117V30.5015C223.117 30.8722 223.164 31.1047 223.258 31.1987C223.352 31.2873 223.64 31.3315 224.121 31.3315C224.193 31.3315 224.268 31.3315 224.345 31.3315C224.428 31.326 224.508 31.3205 224.586 31.3149V33.083L223.465 33.1245C222.347 33.1632 221.584 32.9696 221.174 32.5435C220.909 32.2723 220.776 31.8545 220.776 31.29V25.7202H219.514ZM231.094 23.7197C231.653 23.7197 232.159 23.8166 232.613 24.0103C233.072 24.2039 233.448 24.5 233.742 24.8984C233.991 25.236 234.143 25.5846 234.198 25.9443C234.254 26.2985 234.281 26.8796 234.281 27.6875V33H231.866V27.4966C231.866 27.0096 231.783 26.6167 231.617 26.3179C231.401 25.8973 230.991 25.687 230.388 25.687C229.763 25.687 229.287 25.8973 228.96 26.3179C228.639 26.7329 228.479 27.3278 228.479 28.1025V33H226.122V20.8062H228.479V25.1309C228.822 24.6051 229.218 24.2399 229.666 24.0352C230.12 23.8249 230.596 23.7197 231.094 23.7197ZM246.218 23.7197C246.777 23.7197 247.283 23.8166 247.737 24.0103C248.196 24.2039 248.572 24.5 248.866 24.8984C249.115 25.236 249.267 25.5846 249.322 25.9443C249.378 26.2985 249.405 26.8796 249.405 27.6875V33H246.99V27.4966C246.99 27.0096 246.907 26.6167 246.741 26.3179C246.525 25.8973 246.115 25.687 245.512 25.687C244.887 25.687 244.411 25.8973 244.084 26.3179C243.764 26.7329 243.603 27.3278 243.603 28.1025V33H241.246V20.8062H243.603V25.1309C243.946 24.6051 244.342 24.2399 244.79 24.0352C245.244 23.8249 245.72 23.7197 246.218 23.7197ZM256.61 28.6006C256.461 28.6947 256.309 28.7721 256.154 28.833C256.004 28.8883 255.797 28.9409 255.531 28.9907L255 29.0903C254.502 29.1789 254.145 29.2868 253.929 29.4141C253.564 29.6299 253.381 29.9647 253.381 30.4185C253.381 30.8224 253.492 31.1157 253.713 31.2983C253.94 31.4754 254.214 31.564 254.535 31.564C255.044 31.564 255.512 31.4146 255.938 31.1157C256.37 30.8169 256.594 30.2718 256.61 29.4805V28.6006ZM255.174 27.4966C255.611 27.4412 255.924 27.3721 256.112 27.2891C256.45 27.1452 256.619 26.9211 256.619 26.6167C256.619 26.2459 256.489 25.9914 256.229 25.853C255.974 25.7091 255.598 25.6372 255.1 25.6372C254.541 25.6372 254.145 25.7756 253.913 26.0522C253.747 26.257 253.636 26.5337 253.581 26.8823H251.298C251.348 26.091 251.569 25.4408 251.962 24.9316C252.587 24.1348 253.661 23.7363 255.183 23.7363C256.173 23.7363 257.053 23.9328 257.822 24.3257C258.591 24.7186 258.976 25.4601 258.976 26.5503V30.7007C258.976 30.9884 258.982 31.3371 258.993 31.7466C259.009 32.0565 259.056 32.2668 259.134 32.3774C259.211 32.4881 259.327 32.5794 259.482 32.6514V33H256.909C256.837 32.8174 256.787 32.6458 256.76 32.4854C256.732 32.3249 256.71 32.1423 256.693 31.9375C256.367 32.2917 255.991 32.5933 255.564 32.8423C255.055 33.1356 254.48 33.2822 253.838 33.2822C253.019 33.2822 252.341 33.0498 251.804 32.585C251.273 32.1146 251.007 31.4505 251.007 30.5928C251.007 29.4805 251.436 28.6753 252.294 28.1772C252.764 27.9061 253.456 27.7124 254.369 27.5962L255.174 27.4966ZM265.999 23.7363C266.043 23.7363 266.079 23.7391 266.106 23.7446C266.14 23.7446 266.209 23.7474 266.314 23.7529V26.1768C266.165 26.1602 266.032 26.1491 265.916 26.1436C265.799 26.138 265.705 26.1353 265.633 26.1353C264.681 26.1353 264.042 26.4451 263.716 27.0649C263.533 27.4136 263.442 27.9504 263.442 28.6753V33H261.06V23.9521H263.317V25.5293C263.683 24.9261 264.001 24.5138 264.272 24.2925C264.715 23.9217 265.29 23.7363 265.999 23.7363ZM271.045 23.7363C271.593 23.7363 272.08 23.8581 272.506 24.1016C272.932 24.3395 273.278 24.6715 273.544 25.0977V20.7812H275.943V33H273.644V31.7466C273.306 32.2834 272.921 32.6735 272.49 32.917C272.058 33.1605 271.521 33.2822 270.879 33.2822C269.822 33.2822 268.931 32.8561 268.207 32.0039C267.487 31.1462 267.127 30.0477 267.127 28.7085C267.127 27.1646 267.482 25.9499 268.19 25.0645C268.904 24.179 269.856 23.7363 271.045 23.7363ZM271.56 31.29C272.23 31.29 272.739 31.041 273.087 30.543C273.436 30.0449 273.61 29.4002 273.61 28.6089C273.61 27.5021 273.331 26.7108 272.772 26.2349C272.429 25.9471 272.03 25.8032 271.577 25.8032C270.885 25.8032 270.376 26.0661 270.049 26.5918C269.728 27.112 269.568 27.7594 269.568 28.5342C269.568 29.3698 269.731 30.0394 270.058 30.543C270.39 31.041 270.89 31.29 271.56 31.29ZM5.37061 43.9521H7.76953L9.14746 50.4683L10.5586 43.9521H13.0239L10.4009 53H7.96875L6.54932 46.4092L5.11328 53H2.65625L0.116211 43.9521H2.65625L4.06738 50.4434L5.37061 43.9521ZM18.3945 51.3315C19.0863 51.3315 19.6175 51.0853 19.9883 50.5928C20.359 50.1003 20.5444 49.4002 20.5444 48.4927C20.5444 47.5851 20.359 46.8879 19.9883 46.4009C19.6175 45.9084 19.0863 45.6621 18.3945 45.6621C17.7028 45.6621 17.1688 45.9084 16.7925 46.4009C16.4217 46.8879 16.2363 47.5851 16.2363 48.4927C16.2363 49.4002 16.4217 50.1003 16.7925 50.5928C17.1688 51.0853 17.7028 51.3315 18.3945 51.3315ZM23.0264 48.4927C23.0264 49.8208 22.6445 50.958 21.8809 51.9043C21.1172 52.8451 19.9578 53.3154 18.4028 53.3154C16.8478 53.3154 15.6885 52.8451 14.9248 51.9043C14.1611 50.958 13.7793 49.8208 13.7793 48.4927C13.7793 47.1867 14.1611 46.055 14.9248 45.0977C15.6885 44.1403 16.8478 43.6616 18.4028 43.6616C19.9578 43.6616 21.1172 44.1403 21.8809 45.0977C22.6445 46.055 23.0264 47.1867 23.0264 48.4927ZM29.6421 43.7363C29.6864 43.7363 29.7223 43.7391 29.75 43.7446C29.7832 43.7446 29.8524 43.7474 29.9575 43.7529V46.1768C29.8081 46.1602 29.6753 46.1491 29.5591 46.1436C29.4429 46.138 29.3488 46.1353 29.2769 46.1353C28.325 46.1353 27.6859 46.4451 27.3594 47.0649C27.1768 47.4136 27.0854 47.9504 27.0854 48.6753V53H24.7031V43.9521H26.9609V45.5293C27.3262 44.9261 27.6444 44.5138 27.9155 44.2925C28.3582 43.9217 28.9338 43.7363 29.6421 43.7363ZM31.3271 40.8062H33.6514V47.397L36.5981 43.9937H39.5283L36.3657 47.4551L39.6528 53H36.7974L34.6309 49.1318L33.6514 50.1528V53H31.3271V40.8062ZM50.5352 48.6006C50.3857 48.6947 50.2336 48.7721 50.0786 48.833C49.9292 48.8883 49.7217 48.9409 49.4561 48.9907L48.9248 49.0903C48.4268 49.1789 48.0698 49.2868 47.854 49.4141C47.4888 49.6299 47.3062 49.9647 47.3062 50.4185C47.3062 50.8224 47.4168 51.1157 47.6382 51.2983C47.8651 51.4754 48.139 51.564 48.46 51.564C48.9691 51.564 49.4367 51.4146 49.8628 51.1157C50.2944 50.8169 50.5186 50.2718 50.5352 49.4805V48.6006ZM49.0991 47.4966C49.5363 47.4412 49.849 47.3721 50.0371 47.2891C50.3747 47.1452 50.5435 46.9211 50.5435 46.6167C50.5435 46.2459 50.4134 45.9914 50.1533 45.853C49.8988 45.7091 49.5225 45.6372 49.0244 45.6372C48.4655 45.6372 48.0698 45.7756 47.8374 46.0522C47.6714 46.257 47.5607 46.5337 47.5054 46.8823H45.2227C45.2725 46.091 45.4938 45.4408 45.8867 44.9316C46.512 44.1348 47.5856 43.7363 49.1074 43.7363C50.098 43.7363 50.9779 43.9328 51.7471 44.3257C52.5163 44.7186 52.9009 45.4601 52.9009 46.5503V50.7007C52.9009 50.9884 52.9064 51.3371 52.9175 51.7466C52.9341 52.0565 52.9811 52.2668 53.0586 52.3774C53.1361 52.4881 53.2523 52.5794 53.4072 52.6514V53H50.834C50.762 52.8174 50.7122 52.6458 50.6846 52.4854C50.6569 52.3249 50.6348 52.1423 50.6182 51.9375C50.2917 52.2917 49.9154 52.5933 49.4893 52.8423C48.9801 53.1356 48.4046 53.2822 47.7627 53.2822C46.9437 53.2822 46.2658 53.0498 45.729 52.585C45.1978 52.1146 44.9321 51.4505 44.9321 50.5928C44.9321 49.4805 45.361 48.6753 46.2188 48.1772C46.6891 47.9061 47.3809 47.7124 48.2939 47.5962L49.0991 47.4966ZM60.0229 43.7363C60.9582 43.7363 61.7218 43.9826 62.314 44.4751C62.9116 44.9621 63.2104 45.7728 63.2104 46.9072V53H60.7866V47.4966C60.7866 47.0207 60.723 46.6554 60.5957 46.4009C60.3633 45.936 59.9206 45.7036 59.2676 45.7036C58.4652 45.7036 57.9146 46.0439 57.6157 46.7246C57.4608 47.0843 57.3833 47.5436 57.3833 48.1025V53H55.0259V43.9688H57.3086V45.2886C57.613 44.8237 57.9007 44.4889 58.1719 44.2842C58.6589 43.9189 59.2759 43.7363 60.0229 43.7363ZM68.7388 43.7363C69.2866 43.7363 69.7736 43.8581 70.1997 44.1016C70.6258 44.3395 70.9717 44.6715 71.2373 45.0977V40.7812H73.6362V53H71.3369V51.7466C70.9993 52.2834 70.6147 52.6735 70.1831 52.917C69.7515 53.1605 69.2147 53.2822 68.5728 53.2822C67.5158 53.2822 66.6248 52.8561 65.8999 52.0039C65.1805 51.1462 64.8208 50.0477 64.8208 48.7085C64.8208 47.1646 65.175 45.9499 65.8833 45.0645C66.5972 44.179 67.549 43.7363 68.7388 43.7363ZM69.2534 51.29C69.923 51.29 70.4321 51.041 70.7808 50.543C71.1294 50.0449 71.3037 49.4002 71.3037 48.6089C71.3037 47.5021 71.0243 46.7108 70.4653 46.2349C70.1222 45.9471 69.7238 45.8032 69.27 45.8032C68.5783 45.8032 68.0692 46.0661 67.7427 46.5918C67.4217 47.112 67.2612 47.7594 67.2612 48.5342C67.2612 49.3698 67.4245 50.0394 67.751 50.543C68.083 51.041 68.5838 51.29 69.2534 51.29ZM85.9297 47.1978C85.8854 46.8602 85.772 46.5558 85.5894 46.2847C85.3237 45.9194 84.9115 45.7368 84.3525 45.7368C83.5557 45.7368 83.0106 46.1325 82.7173 46.9238C82.5623 47.3444 82.4849 47.9033 82.4849 48.6006C82.4849 49.2646 82.5623 49.7987 82.7173 50.2026C82.9995 50.9552 83.5308 51.3315 84.311 51.3315C84.8644 51.3315 85.2573 51.1821 85.4897 50.8833C85.7222 50.5845 85.8633 50.1971 85.9131 49.7212H88.3286C88.2733 50.4406 88.0132 51.1213 87.5483 51.7632C86.8068 52.798 85.7083 53.3154 84.2529 53.3154C82.7975 53.3154 81.7267 52.8838 81.0405 52.0205C80.3543 51.1572 80.0112 50.0366 80.0112 48.6587C80.0112 47.1037 80.3903 45.8945 81.1484 45.0312C81.9066 44.168 82.9525 43.7363 84.2861 43.7363C85.4206 43.7363 86.3475 43.9909 87.0669 44.5C87.7918 45.0091 88.2207 45.9084 88.3535 47.1978H85.9297ZM93.5581 45.6621C93.0103 45.6621 92.5841 45.8337 92.2798 46.1768C91.981 46.5199 91.7928 46.9847 91.7153 47.5713H95.3926C95.3538 46.946 95.1629 46.4728 94.8198 46.1519C94.4823 45.8254 94.0617 45.6621 93.5581 45.6621ZM93.5581 43.7114C94.3107 43.7114 94.9886 43.8525 95.5918 44.1348C96.195 44.417 96.693 44.8625 97.0859 45.4712C97.4401 46.008 97.6698 46.6305 97.7749 47.3389C97.8358 47.7539 97.8607 48.3516 97.8496 49.1318H91.6572C91.6904 50.0394 91.9754 50.6758 92.5122 51.041C92.8387 51.2679 93.2316 51.3813 93.6909 51.3813C94.1779 51.3813 94.5736 51.243 94.8779 50.9663C95.0439 50.8169 95.1906 50.6094 95.3179 50.3438H97.7334C97.6725 50.8805 97.3931 51.4256 96.895 51.979C96.1203 52.8589 95.0356 53.2988 93.6411 53.2988C92.4901 53.2988 91.4746 52.9281 90.5947 52.1865C89.7148 51.445 89.2749 50.2386 89.2749 48.5674C89.2749 47.0013 89.6706 45.8005 90.4619 44.9648C91.2588 44.1292 92.2909 43.7114 93.5581 43.7114ZM104.44 48.6006C104.291 48.6947 104.139 48.7721 103.984 48.833C103.834 48.8883 103.627 48.9409 103.361 48.9907L102.83 49.0903C102.332 49.1789 101.975 49.2868 101.759 49.4141C101.394 49.6299 101.211 49.9647 101.211 50.4185C101.211 50.8224 101.322 51.1157 101.543 51.2983C101.77 51.4754 102.044 51.564 102.365 51.564C102.874 51.564 103.342 51.4146 103.768 51.1157C104.2 50.8169 104.424 50.2718 104.44 49.4805V48.6006ZM103.004 47.4966C103.442 47.4412 103.754 47.3721 103.942 47.2891C104.28 47.1452 104.449 46.9211 104.449 46.6167C104.449 46.2459 104.319 45.9914 104.059 45.853C103.804 45.7091 103.428 45.6372 102.93 45.6372C102.371 45.6372 101.975 45.7756 101.743 46.0522C101.577 46.257 101.466 46.5337 101.411 46.8823H99.1279C99.1777 46.091 99.3991 45.4408 99.792 44.9316C100.417 44.1348 101.491 43.7363 103.013 43.7363C104.003 43.7363 104.883 43.9328 105.652 44.3257C106.422 44.7186 106.806 45.4601 106.806 46.5503V50.7007C106.806 50.9884 106.812 51.3371 106.823 51.7466C106.839 52.0565 106.886 52.2668 106.964 52.3774C107.041 52.4881 107.158 52.5794 107.312 52.6514V53H104.739C104.667 52.8174 104.618 52.6458 104.59 52.4854C104.562 52.3249 104.54 52.1423 104.523 51.9375C104.197 52.2917 103.821 52.5933 103.395 52.8423C102.885 53.1356 102.31 53.2822 101.668 53.2822C100.849 53.2822 100.171 53.0498 99.6343 52.585C99.103 52.1146 98.8374 51.4505 98.8374 50.5928C98.8374 49.4805 99.2663 48.6753 100.124 48.1772C100.594 47.9061 101.286 47.7124 102.199 47.5962L103.004 47.4966ZM113.829 43.7363C113.873 43.7363 113.909 43.7391 113.937 43.7446C113.97 43.7446 114.039 43.7474 114.144 43.7529V46.1768C113.995 46.1602 113.862 46.1491 113.746 46.1436C113.629 46.138 113.535 46.1353 113.463 46.1353C112.512 46.1353 111.872 46.4451 111.546 47.0649C111.363 47.4136 111.272 47.9504 111.272 48.6753V53H108.89V43.9521H111.147V45.5293C111.513 44.9261 111.831 44.5138 112.102 44.2925C112.545 43.9217 113.12 43.7363 113.829 43.7363ZM117.971 42.873H115.572V40.6899H117.971V42.873ZM115.572 43.9521H117.971V53H115.572V43.9521ZM125.284 43.7363C126.219 43.7363 126.983 43.9826 127.575 44.4751C128.172 44.9621 128.471 45.7728 128.471 46.9072V53H126.047V47.4966C126.047 47.0207 125.984 46.6554 125.856 46.4009C125.624 45.936 125.181 45.7036 124.528 45.7036C123.726 45.7036 123.175 46.0439 122.876 46.7246C122.722 47.0843 122.644 47.5436 122.644 48.1025V53H120.287V43.9688H122.569V45.2886C122.874 44.8237 123.161 44.4889 123.433 44.2842C123.92 43.9189 124.537 43.7363 125.284 43.7363ZM134.547 51.0576C135.101 51.0576 135.568 50.8501 135.95 50.4351C136.332 50.0145 136.523 49.3477 136.523 48.4346C136.523 47.5768 136.34 46.9238 135.975 46.4756C135.615 46.0273 135.131 45.8032 134.522 45.8032C133.692 45.8032 133.12 46.1934 132.804 46.9736C132.638 47.3887 132.555 47.9006 132.555 48.5093C132.555 49.035 132.644 49.5026 132.821 49.9121C133.142 50.6758 133.717 51.0576 134.547 51.0576ZM133.958 43.7363C134.412 43.7363 134.807 43.8055 135.145 43.9438C135.721 44.1818 136.185 44.619 136.54 45.2554V43.9521H138.839V52.5352C138.839 53.7028 138.642 54.5827 138.25 55.1748C137.574 56.193 136.279 56.7021 134.365 56.7021C133.208 56.7021 132.265 56.4753 131.534 56.0215C130.804 55.5677 130.4 54.8898 130.322 53.9878H132.896C132.962 54.2645 133.07 54.4637 133.219 54.5854C133.474 54.8013 133.903 54.9092 134.506 54.9092C135.358 54.9092 135.928 54.6242 136.216 54.0542C136.404 53.689 136.498 53.0747 136.498 52.2114V51.6304C136.271 52.0177 136.028 52.3083 135.768 52.502C135.297 52.8617 134.686 53.0415 133.933 53.0415C132.771 53.0415 131.841 52.6348 131.144 51.8213C130.452 51.0023 130.106 49.8955 130.106 48.501C130.106 47.1562 130.441 46.0273 131.111 45.1143C131.78 44.1956 132.729 43.7363 133.958 43.7363ZM141.014 50.5264H143.529V53H141.014V50.5264ZM157.391 40.7646H160.288L156.196 48.4014V53H153.639V48.4014L149.406 40.7646H152.419L154.959 46.0938L157.391 40.7646ZM164.355 51.3315C165.047 51.3315 165.578 51.0853 165.949 50.5928C166.32 50.1003 166.505 49.4002 166.505 48.4927C166.505 47.5851 166.32 46.8879 165.949 46.4009C165.578 45.9084 165.047 45.6621 164.355 45.6621C163.664 45.6621 163.13 45.9084 162.753 46.4009C162.383 46.8879 162.197 47.5851 162.197 48.4927C162.197 49.4002 162.383 50.1003 162.753 50.5928C163.13 51.0853 163.664 51.3315 164.355 51.3315ZM168.987 48.4927C168.987 49.8208 168.605 50.958 167.842 51.9043C167.078 52.8451 165.919 53.3154 164.364 53.3154C162.809 53.3154 161.649 52.8451 160.886 51.9043C160.122 50.958 159.74 49.8208 159.74 48.4927C159.74 47.1867 160.122 46.055 160.886 45.0977C161.649 44.1403 162.809 43.6616 164.364 43.6616C165.919 43.6616 167.078 44.1403 167.842 45.0977C168.605 46.055 168.987 47.1867 168.987 48.4927ZM173.046 43.9521V49.4058C173.046 49.9204 173.107 50.3078 173.229 50.5679C173.445 51.0272 173.868 51.2568 174.499 51.2568C175.307 51.2568 175.86 50.9303 176.159 50.2773C176.314 49.9232 176.392 49.4556 176.392 48.8745V43.9521H178.791V53H176.491V51.7217C176.469 51.7493 176.414 51.8324 176.325 51.9707C176.237 52.109 176.132 52.2308 176.01 52.3359C175.639 52.668 175.279 52.8949 174.931 53.0166C174.588 53.1383 174.184 53.1992 173.719 53.1992C172.38 53.1992 171.478 52.7178 171.013 51.7549C170.753 51.2236 170.623 50.4406 170.623 49.4058V43.9521H173.046ZM191.217 47.1978C191.173 46.8602 191.059 46.5558 190.876 46.2847C190.611 45.9194 190.199 45.7368 189.64 45.7368C188.843 45.7368 188.298 46.1325 188.004 46.9238C187.849 47.3444 187.772 47.9033 187.772 48.6006C187.772 49.2646 187.849 49.7987 188.004 50.2026C188.287 50.9552 188.818 51.3315 189.598 51.3315C190.152 51.3315 190.544 51.1821 190.777 50.8833C191.009 50.5845 191.15 50.1971 191.2 49.7212H193.616C193.56 50.4406 193.3 51.1213 192.835 51.7632C192.094 52.798 190.995 53.3154 189.54 53.3154C188.085 53.3154 187.014 52.8838 186.328 52.0205C185.641 51.1572 185.298 50.0366 185.298 48.6587C185.298 47.1037 185.677 45.8945 186.436 45.0312C187.194 44.168 188.24 43.7363 189.573 43.7363C190.708 43.7363 191.635 43.9909 192.354 44.5C193.079 45.0091 193.508 45.9084 193.641 47.1978H191.217ZM200.265 48.6006C200.115 48.6947 199.963 48.7721 199.808 48.833C199.659 48.8883 199.451 48.9409 199.186 48.9907L198.654 49.0903C198.156 49.1789 197.799 49.2868 197.583 49.4141C197.218 49.6299 197.036 49.9647 197.036 50.4185C197.036 50.8224 197.146 51.1157 197.368 51.2983C197.595 51.4754 197.868 51.564 198.189 51.564C198.699 51.564 199.166 51.4146 199.592 51.1157C200.024 50.8169 200.248 50.2718 200.265 49.4805V48.6006ZM198.829 47.4966C199.266 47.4412 199.578 47.3721 199.767 47.2891C200.104 47.1452 200.273 46.9211 200.273 46.6167C200.273 46.2459 200.143 45.9914 199.883 45.853C199.628 45.7091 199.252 45.6372 198.754 45.6372C198.195 45.6372 197.799 45.7756 197.567 46.0522C197.401 46.257 197.29 46.5337 197.235 46.8823H194.952C195.002 46.091 195.223 45.4408 195.616 44.9316C196.242 44.1348 197.315 43.7363 198.837 43.7363C199.827 43.7363 200.707 43.9328 201.477 44.3257C202.246 44.7186 202.63 45.4601 202.63 46.5503V50.7007C202.63 50.9884 202.636 51.3371 202.647 51.7466C202.664 52.0565 202.711 52.2668 202.788 52.3774C202.866 52.4881 202.982 52.5794 203.137 52.6514V53H200.563C200.492 52.8174 200.442 52.6458 200.414 52.4854C200.386 52.3249 200.364 52.1423 200.348 51.9375C200.021 52.2917 199.645 52.5933 199.219 52.8423C198.71 53.1356 198.134 53.2822 197.492 53.2822C196.673 53.2822 195.995 53.0498 195.458 52.585C194.927 52.1146 194.662 51.4505 194.662 50.5928C194.662 49.4805 195.09 48.6753 195.948 48.1772C196.419 47.9061 197.11 47.7124 198.023 47.5962L198.829 47.4966ZM209.752 43.7363C210.688 43.7363 211.451 43.9826 212.043 44.4751C212.641 44.9621 212.94 45.7728 212.94 46.9072V53H210.516V47.4966C210.516 47.0207 210.452 46.6554 210.325 46.4009C210.093 45.936 209.65 45.7036 208.997 45.7036C208.195 45.7036 207.644 46.0439 207.345 46.7246C207.19 47.0843 207.113 47.5436 207.113 48.1025V53H204.755V43.9688H207.038V45.2886C207.342 44.8237 207.63 44.4889 207.901 44.2842C208.388 43.9189 209.005 43.7363 209.752 43.7363ZM224.852 48.6006C224.702 48.6947 224.55 48.7721 224.395 48.833C224.246 48.8883 224.038 48.9409 223.772 48.9907L223.241 49.0903C222.743 49.1789 222.386 49.2868 222.17 49.4141C221.805 49.6299 221.623 49.9647 221.623 50.4185C221.623 50.8224 221.733 51.1157 221.955 51.2983C222.181 51.4754 222.455 51.564 222.776 51.564C223.285 51.564 223.753 51.4146 224.179 51.1157C224.611 50.8169 224.835 50.2718 224.852 49.4805V48.6006ZM223.416 47.4966C223.853 47.4412 224.165 47.3721 224.354 47.2891C224.691 47.1452 224.86 46.9211 224.86 46.6167C224.86 46.2459 224.73 45.9914 224.47 45.853C224.215 45.7091 223.839 45.6372 223.341 45.6372C222.782 45.6372 222.386 45.7756 222.154 46.0522C221.988 46.257 221.877 46.5337 221.822 46.8823H219.539C219.589 46.091 219.81 45.4408 220.203 44.9316C220.828 44.1348 221.902 43.7363 223.424 43.7363C224.414 43.7363 225.294 43.9328 226.063 44.3257C226.833 44.7186 227.217 45.4601 227.217 46.5503V50.7007C227.217 50.9884 227.223 51.3371 227.234 51.7466C227.25 52.0565 227.298 52.2668 227.375 52.3774C227.452 52.4881 227.569 52.5794 227.724 52.6514V53H225.15C225.078 52.8174 225.029 52.6458 225.001 52.4854C224.973 52.3249 224.951 52.1423 224.935 51.9375C224.608 52.2917 224.232 52.5933 223.806 52.8423C223.297 53.1356 222.721 53.2822 222.079 53.2822C221.26 53.2822 220.582 53.0498 220.045 52.585C219.514 52.1146 219.249 51.4505 219.249 50.5928C219.249 49.4805 219.677 48.6753 220.535 48.1772C221.006 47.9061 221.697 47.7124 222.61 47.5962L223.416 47.4966ZM234.729 47.1978C234.685 46.8602 234.572 46.5558 234.389 46.2847C234.124 45.9194 233.711 45.7368 233.152 45.7368C232.355 45.7368 231.81 46.1325 231.517 46.9238C231.362 47.3444 231.285 47.9033 231.285 48.6006C231.285 49.2646 231.362 49.7987 231.517 50.2026C231.799 50.9552 232.331 51.3315 233.111 51.3315C233.664 51.3315 234.057 51.1821 234.29 50.8833C234.522 50.5845 234.663 50.1971 234.713 49.7212H237.128C237.073 50.4406 236.813 51.1213 236.348 51.7632C235.607 52.798 234.508 53.3154 233.053 53.3154C231.597 53.3154 230.527 52.8838 229.84 52.0205C229.154 51.1572 228.811 50.0366 228.811 48.6587C228.811 47.1037 229.19 45.8945 229.948 45.0312C230.706 44.168 231.752 43.7363 233.086 43.7363C234.22 43.7363 235.147 43.9909 235.867 44.5C236.592 45.0091 237.021 45.9084 237.153 47.1978H234.729ZM244.192 47.1978C244.148 46.8602 244.035 46.5558 243.852 46.2847C243.586 45.9194 243.174 45.7368 242.615 45.7368C241.818 45.7368 241.273 46.1325 240.98 46.9238C240.825 47.3444 240.748 47.9033 240.748 48.6006C240.748 49.2646 240.825 49.7987 240.98 50.2026C241.262 50.9552 241.793 51.3315 242.574 51.3315C243.127 51.3315 243.52 51.1821 243.752 50.8833C243.985 50.5845 244.126 50.1971 244.176 49.7212H246.591C246.536 50.4406 246.276 51.1213 245.811 51.7632C245.069 52.798 243.971 53.3154 242.516 53.3154C241.06 53.3154 239.989 52.8838 239.303 52.0205C238.617 51.1572 238.274 50.0366 238.274 48.6587C238.274 47.1037 238.653 45.8945 239.411 45.0312C240.169 44.168 241.215 43.7363 242.549 43.7363C243.683 43.7363 244.61 43.9909 245.33 44.5C246.055 45.0091 246.483 45.9084 246.616 47.1978H244.192ZM251.821 45.6621C251.273 45.6621 250.847 45.8337 250.542 46.1768C250.244 46.5199 250.056 46.9847 249.978 47.5713H253.655C253.617 46.946 253.426 46.4728 253.083 46.1519C252.745 45.8254 252.324 45.6621 251.821 45.6621ZM251.821 43.7114C252.573 43.7114 253.251 43.8525 253.854 44.1348C254.458 44.417 254.956 44.8625 255.349 45.4712C255.703 46.008 255.932 46.6305 256.038 47.3389C256.098 47.7539 256.123 48.3516 256.112 49.1318H249.92C249.953 50.0394 250.238 50.6758 250.775 51.041C251.101 51.2679 251.494 51.3813 251.954 51.3813C252.441 51.3813 252.836 51.243 253.141 50.9663C253.307 50.8169 253.453 50.6094 253.581 50.3438H255.996C255.935 50.8805 255.656 51.4256 255.158 51.979C254.383 52.8589 253.298 53.2988 251.904 53.2988C250.753 53.2988 249.737 52.9281 248.857 52.1865C247.978 51.445 247.538 50.2386 247.538 48.5674C247.538 47.0013 247.933 45.8005 248.725 44.9648C249.521 44.1292 250.554 43.7114 251.821 43.7114ZM263.948 48.4761C263.948 47.7788 263.788 47.1618 263.467 46.625C263.151 46.0882 262.637 45.8198 261.923 45.8198C261.065 45.8198 260.476 46.2266 260.155 47.04C259.989 47.4717 259.906 48.0195 259.906 48.6836C259.906 49.735 260.185 50.4738 260.744 50.8999C261.076 51.1489 261.469 51.2734 261.923 51.2734C262.581 51.2734 263.082 51.0189 263.425 50.5098C263.774 50.0007 263.948 49.3228 263.948 48.4761ZM262.604 43.7529C263.66 43.7529 264.554 44.1431 265.285 44.9233C266.021 45.7036 266.389 46.8491 266.389 48.3599C266.389 49.9536 266.029 51.1683 265.31 52.0039C264.596 52.8395 263.674 53.2573 262.545 53.2573C261.826 53.2573 261.228 53.0775 260.752 52.7178C260.492 52.5186 260.238 52.228 259.989 51.8462V56.561H257.648V43.9521H259.914V45.2886C260.169 44.8957 260.44 44.5858 260.728 44.3589C261.253 43.9549 261.879 43.7529 262.604 43.7529ZM267.177 45.7202V44.0352H268.439V41.5117H270.78V44.0352H272.249V45.7202H270.78V50.5015C270.78 50.8722 270.827 51.1047 270.921 51.1987C271.015 51.2873 271.303 51.3315 271.784 51.3315C271.856 51.3315 271.931 51.3315 272.008 51.3315C272.091 51.326 272.172 51.3205 272.249 51.3149V53.083L271.128 53.1245C270.011 53.1632 269.247 52.9696 268.837 52.5435C268.572 52.2723 268.439 51.8545 268.439 51.29V45.7202H267.177ZM5.16309 71.3315C5.85482 71.3315 6.38607 71.0853 6.75684 70.5928C7.1276 70.1003 7.31299 69.4002 7.31299 68.4927C7.31299 67.5851 7.1276 66.8879 6.75684 66.4009C6.38607 65.9084 5.85482 65.6621 5.16309 65.6621C4.47135 65.6621 3.93734 65.9084 3.56104 66.4009C3.19027 66.8879 3.00488 67.5851 3.00488 68.4927C3.00488 69.4002 3.19027 70.1003 3.56104 70.5928C3.93734 71.0853 4.47135 71.3315 5.16309 71.3315ZM9.79492 68.4927C9.79492 69.8208 9.41309 70.958 8.64941 71.9043C7.88574 72.8451 6.7264 73.3154 5.17139 73.3154C3.61637 73.3154 2.45703 72.8451 1.69336 71.9043C0.929688 70.958 0.547852 69.8208 0.547852 68.4927C0.547852 67.1867 0.929688 66.055 1.69336 65.0977C2.45703 64.1403 3.61637 63.6616 5.17139 63.6616C6.7264 63.6616 7.88574 64.1403 8.64941 65.0977C9.41309 66.055 9.79492 67.1867 9.79492 68.4927ZM16.5103 63.7363C17.4455 63.7363 18.2091 63.9826 18.8013 64.4751C19.3989 64.9621 19.6978 65.7728 19.6978 66.9072V73H17.2739V67.4966C17.2739 67.0207 17.2103 66.6554 17.083 66.4009C16.8506 65.936 16.4079 65.7036 15.7549 65.7036C14.9525 65.7036 14.4019 66.0439 14.103 66.7246C13.9481 67.0843 13.8706 67.5436 13.8706 68.1025V73H11.5132V63.9688H13.7959V65.2886C14.1003 64.8237 14.388 64.4889 14.6592 64.2842C15.1462 63.9189 15.7632 63.7363 16.5103 63.7363ZM24.3047 73H21.939V60.7646H24.3047V73ZM26.9858 74.7349L27.2847 74.7515C27.5171 74.7625 27.7384 74.7542 27.9487 74.7266C28.159 74.6989 28.3361 74.6353 28.48 74.5356C28.6183 74.4416 28.7456 74.2451 28.8618 73.9463C28.9836 73.6475 29.0334 73.4648 29.0112 73.3984L25.6909 63.9521H28.3223L30.2979 70.626L32.1655 63.9521H34.6807L31.5762 72.8506C30.9785 74.5661 30.5054 75.6286 30.1567 76.0381C29.8081 76.4531 29.1108 76.6606 28.0649 76.6606C27.8547 76.6606 27.6859 76.6579 27.5586 76.6523C27.4313 76.6523 27.2404 76.644 26.9858 76.6274V74.7349ZM39.8853 65.7202V64.0352H41.147V61.5117H43.4878V64.0352H44.957V65.7202H43.4878V70.5015C43.4878 70.8722 43.5348 71.1047 43.6289 71.1987C43.723 71.2873 44.0107 71.3315 44.4922 71.3315C44.5641 71.3315 44.6388 71.3315 44.7163 71.3315C44.7993 71.326 44.8796 71.3205 44.957 71.3149V73.083L43.8364 73.1245C42.7186 73.1632 41.9549 72.9696 41.5454 72.5435C41.2798 72.2723 41.147 71.8545 41.147 71.29V65.7202H39.8853ZM51.4648 63.7197C52.0238 63.7197 52.5301 63.8166 52.9839 64.0103C53.4432 64.2039 53.8195 64.5 54.1128 64.8984C54.3618 65.236 54.514 65.5846 54.5693 65.9443C54.6247 66.2985 54.6523 66.8796 54.6523 67.6875V73H52.2368V67.4966C52.2368 67.0096 52.1538 66.6167 51.9878 66.3179C51.772 65.8973 51.3625 65.687 50.7593 65.687C50.134 65.687 49.658 65.8973 49.3315 66.3179C49.0106 66.7329 48.8501 67.3278 48.8501 68.1025V73H46.4927V60.8062H48.8501V65.1309C49.1932 64.6051 49.5889 64.2399 50.0371 64.0352C50.4909 63.8249 50.9668 63.7197 51.4648 63.7197ZM60.438 65.6621C59.8901 65.6621 59.464 65.8337 59.1597 66.1768C58.8608 66.5199 58.6727 66.9847 58.5952 67.5713H62.2725C62.2337 66.946 62.0428 66.4728 61.6997 66.1519C61.3621 65.8254 60.9416 65.6621 60.438 65.6621ZM60.438 63.7114C61.1906 63.7114 61.8685 63.8525 62.4717 64.1348C63.0749 64.417 63.5729 64.8625 63.9658 65.4712C64.32 66.008 64.5496 66.6305 64.6548 67.3389C64.7157 67.7539 64.7406 68.3516 64.7295 69.1318H58.5371C58.5703 70.0394 58.8553 70.6758 59.3921 71.041C59.7186 71.2679 60.1115 71.3813 60.5708 71.3813C61.0578 71.3813 61.4535 71.243 61.7578 70.9663C61.9238 70.8169 62.0705 70.6094 62.1978 70.3438H64.6133C64.5524 70.8805 64.2729 71.4256 63.7749 71.979C63.0002 72.8589 61.9155 73.2988 60.521 73.2988C59.37 73.2988 58.3545 72.9281 57.4746 72.1865C56.5947 71.445 56.1548 70.2386 56.1548 68.5674C56.1548 67.0013 56.5505 65.8005 57.3418 64.9648C58.1387 64.1292 59.1707 63.7114 60.438 63.7114ZM75.9521 63.7529C77.1419 63.7529 78.0716 64.1818 78.7412 65.0396C79.4163 65.8973 79.7539 67.0041 79.7539 68.3599C79.7539 69.7655 79.4219 70.9303 78.7578 71.8545C78.0938 72.7786 77.1668 73.2407 75.9771 73.2407C75.23 73.2407 74.6296 73.0913 74.1758 72.7925C73.9046 72.6154 73.6113 72.3055 73.2959 71.8628V73H70.98V60.7812H73.3374V65.1309C73.6362 64.7103 73.9655 64.3893 74.3252 64.168C74.7513 63.8913 75.2936 63.7529 75.9521 63.7529ZM75.3462 71.29C75.9549 71.29 76.4281 71.0438 76.7656 70.5513C77.1032 70.0588 77.272 69.4113 77.272 68.6089C77.272 67.967 77.189 67.4357 77.0229 67.0151C76.7075 66.2183 76.1265 65.8198 75.2798 65.8198C74.422 65.8198 73.8327 66.21 73.5117 66.9902C73.3457 67.4053 73.2627 67.9421 73.2627 68.6006C73.2627 69.3753 73.4342 70.0173 73.7773 70.5264C74.1204 71.0355 74.6434 71.29 75.3462 71.29ZM85.0249 65.6621C84.4771 65.6621 84.0509 65.8337 83.7466 66.1768C83.4478 66.5199 83.2596 66.9847 83.1821 67.5713H86.8594C86.8206 66.946 86.6297 66.4728 86.2866 66.1519C85.9491 65.8254 85.5285 65.6621 85.0249 65.6621ZM85.0249 63.7114C85.7775 63.7114 86.4554 63.8525 87.0586 64.1348C87.6618 64.417 88.1598 64.8625 88.5527 65.4712C88.9069 66.008 89.1366 66.6305 89.2417 67.3389C89.3026 67.7539 89.3275 68.3516 89.3164 69.1318H83.124C83.1572 70.0394 83.4422 70.6758 83.979 71.041C84.3055 71.2679 84.6984 71.3813 85.1577 71.3813C85.6447 71.3813 86.0404 71.243 86.3447 70.9663C86.5107 70.8169 86.6574 70.6094 86.7847 70.3438H89.2002C89.1393 70.8805 88.8599 71.4256 88.3618 71.979C87.5871 72.8589 86.5024 73.2988 85.1079 73.2988C83.9569 73.2988 82.9414 72.9281 82.0615 72.1865C81.1816 71.445 80.7417 70.2386 80.7417 68.5674C80.7417 67.0013 81.1374 65.8005 81.9287 64.9648C82.7256 64.1292 83.7576 63.7114 85.0249 63.7114ZM92.7612 70.1113C92.811 70.5319 92.9189 70.8307 93.085 71.0078C93.3783 71.3232 93.9206 71.481 94.7119 71.481C95.1768 71.481 95.5448 71.4118 95.8159 71.2734C96.0926 71.1351 96.231 70.9276 96.231 70.6509C96.231 70.3853 96.1203 70.1833 95.8989 70.0449C95.6776 69.9066 94.8558 69.6686 93.4336 69.3311C92.4098 69.0765 91.6877 68.7583 91.2671 68.3765C90.8465 68.0002 90.6362 67.4578 90.6362 66.7495C90.6362 65.9139 90.9627 65.1973 91.6157 64.5996C92.2743 63.9964 93.1984 63.6948 94.3882 63.6948C95.5171 63.6948 96.4357 63.9217 97.144 64.3755C97.8579 64.8237 98.2674 65.6012 98.3726 66.708H96.0068C95.9736 66.4036 95.8879 66.1629 95.7495 65.9858C95.4894 65.6649 95.0467 65.5044 94.4214 65.5044C93.9067 65.5044 93.5387 65.5846 93.3174 65.7451C93.1016 65.9056 92.9937 66.0938 92.9937 66.3096C92.9937 66.5807 93.1099 66.7772 93.3423 66.8989C93.5747 67.0262 94.3965 67.2448 95.8076 67.5547C96.7484 67.776 97.4539 68.1108 97.9243 68.5591C98.3892 69.0129 98.6216 69.5801 98.6216 70.2607C98.6216 71.1572 98.2868 71.8905 97.6172 72.4604C96.9531 73.0249 95.9238 73.3071 94.5293 73.3071C93.1071 73.3071 92.0557 73.0083 91.375 72.4106C90.6999 71.8075 90.3623 71.041 90.3623 70.1113H92.7612ZM99.4517 65.7202V64.0352H100.713V61.5117H103.054V64.0352H104.523V65.7202H103.054V70.5015C103.054 70.8722 103.101 71.1047 103.195 71.1987C103.289 71.2873 103.577 71.3315 104.059 71.3315C104.131 71.3315 104.205 71.3315 104.283 71.3315C104.366 71.326 104.446 71.3205 104.523 71.3149V73.083L103.403 73.1245C102.285 73.1632 101.521 72.9696 101.112 72.5435C100.846 72.2723 100.713 71.8545 100.713 71.29V65.7202H99.4517ZM112.617 70.1113C112.667 70.5319 112.774 70.8307 112.94 71.0078C113.234 71.3232 113.776 71.481 114.567 71.481C115.032 71.481 115.4 71.4118 115.671 71.2734C115.948 71.1351 116.086 70.9276 116.086 70.6509C116.086 70.3853 115.976 70.1833 115.754 70.0449C115.533 69.9066 114.711 69.6686 113.289 69.3311C112.265 69.0765 111.543 68.7583 111.123 68.3765C110.702 68.0002 110.492 67.4578 110.492 66.7495C110.492 65.9139 110.818 65.1973 111.471 64.5996C112.13 63.9964 113.054 63.6948 114.244 63.6948C115.373 63.6948 116.291 63.9217 117 64.3755C117.713 64.8237 118.123 65.6012 118.228 66.708H115.862C115.829 66.4036 115.743 66.1629 115.605 65.9858C115.345 65.6649 114.902 65.5044 114.277 65.5044C113.762 65.5044 113.394 65.5846 113.173 65.7451C112.957 65.9056 112.849 66.0938 112.849 66.3096C112.849 66.5807 112.965 66.7772 113.198 66.8989C113.43 67.0262 114.252 67.2448 115.663 67.5547C116.604 67.776 117.309 68.1108 117.78 68.5591C118.245 69.0129 118.477 69.5801 118.477 70.2607C118.477 71.1572 118.142 71.8905 117.473 72.4604C116.809 73.0249 115.779 73.3071 114.385 73.3071C112.963 73.3071 111.911 73.0083 111.23 72.4106C110.555 71.8075 110.218 71.041 110.218 70.1113H112.617ZM123.806 65.6621C123.258 65.6621 122.832 65.8337 122.528 66.1768C122.229 66.5199 122.041 66.9847 121.963 67.5713H125.641C125.602 66.946 125.411 66.4728 125.068 66.1519C124.73 65.8254 124.31 65.6621 123.806 65.6621ZM123.806 63.7114C124.559 63.7114 125.237 63.8525 125.84 64.1348C126.443 64.417 126.941 64.8625 127.334 65.4712C127.688 66.008 127.918 66.6305 128.023 67.3389C128.084 67.7539 128.109 68.3516 128.098 69.1318H121.905C121.938 70.0394 122.223 70.6758 122.76 71.041C123.087 71.2679 123.48 71.3813 123.939 71.3813C124.426 71.3813 124.822 71.243 125.126 70.9663C125.292 70.8169 125.439 70.6094 125.566 70.3438H127.981C127.921 70.8805 127.641 71.4256 127.143 71.979C126.368 72.8589 125.284 73.2988 123.889 73.2988C122.738 73.2988 121.723 72.9281 120.843 72.1865C119.963 71.445 119.523 70.2386 119.523 68.5674C119.523 67.0013 119.919 65.8005 120.71 64.9648C121.507 64.1292 122.539 63.7114 123.806 63.7114ZM134.614 63.7363C134.658 63.7363 134.694 63.7391 134.722 63.7446C134.755 63.7446 134.824 63.7474 134.929 63.7529V66.1768C134.78 66.1602 134.647 66.1491 134.531 66.1436C134.415 66.138 134.32 66.1353 134.249 66.1353C133.297 66.1353 132.658 66.4451 132.331 67.0649C132.148 67.4136 132.057 67.9504 132.057 68.6753V73H129.675V63.9521H131.933V65.5293C132.298 64.9261 132.616 64.5138 132.887 64.2925C133.33 63.9217 133.905 63.7363 134.614 63.7363ZM141.902 63.9521H144.442L141.18 73H138.681L135.436 63.9521H138.092L139.976 70.626L141.902 63.9521ZM148.219 62.873H145.82V60.6899H148.219V62.873ZM145.82 63.9521H148.219V73H145.82V63.9521ZM155.922 67.1978C155.878 66.8602 155.764 66.5558 155.582 66.2847C155.316 65.9194 154.904 65.7368 154.345 65.7368C153.548 65.7368 153.003 66.1325 152.709 66.9238C152.555 67.3444 152.477 67.9033 152.477 68.6006C152.477 69.2646 152.555 69.7987 152.709 70.2026C152.992 70.9552 153.523 71.3315 154.303 71.3315C154.857 71.3315 155.25 71.1821 155.482 70.8833C155.714 70.5845 155.855 70.1971 155.905 69.7212H158.321C158.265 70.4406 158.005 71.1213 157.541 71.7632C156.799 72.798 155.701 73.3154 154.245 73.3154C152.79 73.3154 151.719 72.8838 151.033 72.0205C150.347 71.1572 150.003 70.0366 150.003 68.6587C150.003 67.1037 150.382 65.8945 151.141 65.0312C151.899 64.168 152.945 63.7363 154.278 63.7363C155.413 63.7363 156.34 63.9909 157.059 64.5C157.784 65.0091 158.213 65.9084 158.346 67.1978H155.922ZM163.55 65.6621C163.002 65.6621 162.576 65.8337 162.272 66.1768C161.973 66.5199 161.785 66.9847 161.708 67.5713H165.385C165.346 66.946 165.155 66.4728 164.812 66.1519C164.474 65.8254 164.054 65.6621 163.55 65.6621ZM163.55 63.7114C164.303 63.7114 164.981 63.8525 165.584 64.1348C166.187 64.417 166.685 64.8625 167.078 65.4712C167.432 66.008 167.662 66.6305 167.767 67.3389C167.828 67.7539 167.853 68.3516 167.842 69.1318H161.649C161.683 70.0394 161.968 70.6758 162.504 71.041C162.831 71.2679 163.224 71.3813 163.683 71.3813C164.17 71.3813 164.566 71.243 164.87 70.9663C165.036 70.8169 165.183 70.6094 165.31 70.3438H167.726C167.665 70.8805 167.385 71.4256 166.887 71.979C166.112 72.8589 165.028 73.2988 163.633 73.2988C162.482 73.2988 161.467 72.9281 160.587 72.1865C159.707 71.445 159.267 70.2386 159.267 68.5674C159.267 67.0013 159.663 65.8005 160.454 64.9648C161.251 64.1292 162.283 63.7114 163.55 63.7114ZM171.287 70.1113C171.336 70.5319 171.444 70.8307 171.61 71.0078C171.904 71.3232 172.446 71.481 173.237 71.481C173.702 71.481 174.07 71.4118 174.341 71.2734C174.618 71.1351 174.756 70.9276 174.756 70.6509C174.756 70.3853 174.646 70.1833 174.424 70.0449C174.203 69.9066 173.381 69.6686 171.959 69.3311C170.935 69.0765 170.213 68.7583 169.792 68.3765C169.372 68.0002 169.162 67.4578 169.162 66.7495C169.162 65.9139 169.488 65.1973 170.141 64.5996C170.8 63.9964 171.724 63.6948 172.914 63.6948C174.042 63.6948 174.961 63.9217 175.669 64.3755C176.383 64.8237 176.793 65.6012 176.898 66.708H174.532C174.499 66.4036 174.413 66.1629 174.275 65.9858C174.015 65.6649 173.572 65.5044 172.947 65.5044C172.432 65.5044 172.064 65.5846 171.843 65.7451C171.627 65.9056 171.519 66.0938 171.519 66.3096C171.519 66.5807 171.635 66.7772 171.868 66.8989C172.1 67.0262 172.922 67.2448 174.333 67.5547C175.274 67.776 175.979 68.1108 176.45 68.5591C176.915 69.0129 177.147 69.5801 177.147 70.2607C177.147 71.1572 176.812 71.8905 176.143 72.4604C175.479 73.0249 174.449 73.3071 173.055 73.3071C171.632 73.3071 170.581 73.0083 169.9 72.4106C169.225 71.8075 168.888 71.041 168.888 70.1113H171.287ZM186.975 60.6401C187.125 60.6401 187.26 60.6457 187.382 60.6567C187.504 60.6623 187.67 60.6733 187.88 60.6899V62.6157C187.747 62.5991 187.523 62.5881 187.208 62.5825C186.898 62.5715 186.682 62.6406 186.56 62.79C186.444 62.9339 186.386 63.0944 186.386 63.2715C186.386 63.4486 186.386 63.7031 186.386 64.0352H187.938V65.7036H186.386V73H184.028V65.7036H182.708V64.0352H184.003V63.4541C184.003 62.4857 184.167 61.8188 184.493 61.4536C184.836 60.9113 185.664 60.6401 186.975 60.6401ZM194.213 63.7363C194.258 63.7363 194.294 63.7391 194.321 63.7446C194.354 63.7446 194.424 63.7474 194.529 63.7529V66.1768C194.379 66.1602 194.247 66.1491 194.13 66.1436C194.014 66.138 193.92 66.1353 193.848 66.1353C192.896 66.1353 192.257 66.4451 191.931 67.0649C191.748 67.4136 191.657 67.9504 191.657 68.6753V73H189.274V63.9521H191.532V65.5293C191.897 64.9261 192.216 64.5138 192.487 64.2925C192.93 63.9217 193.505 63.7363 194.213 63.7363ZM199.982 71.3315C200.674 71.3315 201.205 71.0853 201.576 70.5928C201.947 70.1003 202.132 69.4002 202.132 68.4927C202.132 67.5851 201.947 66.8879 201.576 66.4009C201.205 65.9084 200.674 65.6621 199.982 65.6621C199.291 65.6621 198.757 65.9084 198.38 66.4009C198.01 66.8879 197.824 67.5851 197.824 68.4927C197.824 69.4002 198.01 70.1003 198.38 70.5928C198.757 71.0853 199.291 71.3315 199.982 71.3315ZM204.614 68.4927C204.614 69.8208 204.232 70.958 203.469 71.9043C202.705 72.8451 201.546 73.3154 199.991 73.3154C198.436 73.3154 197.276 72.8451 196.513 71.9043C195.749 70.958 195.367 69.8208 195.367 68.4927C195.367 67.1867 195.749 66.055 196.513 65.0977C197.276 64.1403 198.436 63.6616 199.991 63.6616C201.546 63.6616 202.705 64.1403 203.469 65.0977C204.232 66.055 204.614 67.1867 204.614 68.4927ZM216.426 63.7529C216.825 63.7529 217.218 63.8304 217.605 63.9854C217.992 64.1403 218.344 64.4115 218.659 64.7988C218.914 65.1143 219.085 65.5016 219.174 65.9609C219.229 66.2653 219.257 66.7108 219.257 67.2974L219.24 73H216.816V67.2393C216.816 66.8962 216.761 66.6139 216.65 66.3926C216.44 65.972 216.053 65.7617 215.488 65.7617C214.835 65.7617 214.384 66.0329 214.135 66.5752C214.008 66.863 213.944 67.2088 213.944 67.6128V73H211.562V67.6128C211.562 67.076 211.507 66.6859 211.396 66.4424C211.197 66.0052 210.807 65.7866 210.226 65.7866C209.55 65.7866 209.097 66.0052 208.864 66.4424C208.737 66.6914 208.673 67.0622 208.673 67.5547V73H206.274V63.9688H208.574V65.2886C208.867 64.8182 209.144 64.4834 209.404 64.2842C209.863 63.93 210.458 63.7529 211.188 63.7529C211.88 63.7529 212.439 63.9051 212.865 64.2095C213.208 64.4917 213.468 64.8542 213.646 65.2969C213.955 64.7656 214.34 64.3755 214.799 64.1265C215.286 63.8774 215.829 63.7529 216.426 63.7529ZM230.23 71.3315C230.922 71.3315 231.453 71.0853 231.824 70.5928C232.195 70.1003 232.38 69.4002 232.38 68.4927C232.38 67.5851 232.195 66.8879 231.824 66.4009C231.453 65.9084 230.922 65.6621 230.23 65.6621C229.539 65.6621 229.005 65.9084 228.628 66.4009C228.258 66.8879 228.072 67.5851 228.072 68.4927C228.072 69.4002 228.258 70.1003 228.628 70.5928C229.005 71.0853 229.539 71.3315 230.23 71.3315ZM234.862 68.4927C234.862 69.8208 234.48 70.958 233.717 71.9043C232.953 72.8451 231.794 73.3154 230.239 73.3154C228.684 73.3154 227.524 72.8451 226.761 71.9043C225.997 70.958 225.615 69.8208 225.615 68.4927C225.615 67.1867 225.997 66.055 226.761 65.0977C227.524 64.1403 228.684 63.6616 230.239 63.6616C231.794 63.6616 232.953 64.1403 233.717 65.0977C234.48 66.055 234.862 67.1867 234.862 68.4927ZM238.921 63.9521V69.4058C238.921 69.9204 238.982 70.3078 239.104 70.5679C239.32 71.0272 239.743 71.2568 240.374 71.2568C241.182 71.2568 241.735 70.9303 242.034 70.2773C242.189 69.9232 242.267 69.4556 242.267 68.8745V63.9521H244.666V73H242.366V71.7217C242.344 71.7493 242.289 71.8324 242.2 71.9707C242.112 72.109 242.007 72.2308 241.885 72.3359C241.514 72.668 241.154 72.8949 240.806 73.0166C240.463 73.1383 240.059 73.1992 239.594 73.1992C238.255 73.1992 237.353 72.7178 236.888 71.7549C236.628 71.2236 236.498 70.4406 236.498 69.4058V63.9521H238.921ZM251.871 63.7363C251.915 63.7363 251.951 63.7391 251.979 63.7446C252.012 63.7446 252.081 63.7474 252.186 63.7529V66.1768C252.037 66.1602 251.904 66.1491 251.788 66.1436C251.671 66.138 251.577 66.1353 251.505 66.1353C250.554 66.1353 249.914 66.4451 249.588 67.0649C249.405 67.4136 249.314 67.9504 249.314 68.6753V73H246.932V63.9521H249.189V65.5293C249.555 64.9261 249.873 64.5138 250.144 64.2925C250.587 63.9217 251.162 63.7363 251.871 63.7363ZM260.155 70.1113C260.205 70.5319 260.312 70.8307 260.479 71.0078C260.772 71.3232 261.314 71.481 262.105 71.481C262.57 71.481 262.938 71.4118 263.209 71.2734C263.486 71.1351 263.625 70.9276 263.625 70.6509C263.625 70.3853 263.514 70.1833 263.292 70.0449C263.071 69.9066 262.249 69.6686 260.827 69.3311C259.803 69.0765 259.081 68.7583 258.661 68.3765C258.24 68.0002 258.03 67.4578 258.03 66.7495C258.03 65.9139 258.356 65.1973 259.009 64.5996C259.668 63.9964 260.592 63.6948 261.782 63.6948C262.911 63.6948 263.829 63.9217 264.538 64.3755C265.251 64.8237 265.661 65.6012 265.766 66.708H263.4C263.367 66.4036 263.281 66.1629 263.143 65.9858C262.883 65.6649 262.44 65.5044 261.815 65.5044C261.3 65.5044 260.932 65.5846 260.711 65.7451C260.495 65.9056 260.387 66.0938 260.387 66.3096C260.387 66.5807 260.503 66.7772 260.736 66.8989C260.968 67.0262 261.79 67.2448 263.201 67.5547C264.142 67.776 264.847 68.1108 265.318 68.5591C265.783 69.0129 266.015 69.5801 266.015 70.2607C266.015 71.1572 265.68 71.8905 265.011 72.4604C264.347 73.0249 263.317 73.3071 261.923 73.3071C260.501 73.3071 259.449 73.0083 258.769 72.4106C258.093 71.8075 257.756 71.041 257.756 70.1113H260.155ZM266.845 65.7202V64.0352H268.107V61.5117H270.448V64.0352H271.917V65.7202H270.448V70.5015C270.448 70.8722 270.495 71.1047 270.589 71.1987C270.683 71.2873 270.971 71.3315 271.452 71.3315C271.524 71.3315 271.599 71.3315 271.676 71.3315C271.759 71.326 271.84 71.3205 271.917 71.3149V73.083L270.796 73.1245C269.679 73.1632 268.915 72.9696 268.505 72.5435C268.24 72.2723 268.107 71.8545 268.107 71.29V65.7202H266.845ZM275.793 63.9521V69.4058C275.793 69.9204 275.854 70.3078 275.976 70.5679C276.192 71.0272 276.615 71.2568 277.246 71.2568C278.054 71.2568 278.607 70.9303 278.906 70.2773C279.061 69.9232 279.139 69.4556 279.139 68.8745V63.9521H281.538V73H279.238V71.7217C279.216 71.7493 279.161 71.8324 279.072 71.9707C278.984 72.109 278.879 72.2308 278.757 72.3359C278.386 72.668 278.026 72.8949 277.678 73.0166C277.335 73.1383 276.931 73.1992 276.466 73.1992C275.127 73.1992 274.225 72.7178 273.76 71.7549C273.5 71.2236 273.37 70.4406 273.37 69.4058V63.9521H275.793ZM287.166 60.6401C287.315 60.6401 287.451 60.6457 287.572 60.6567C287.694 60.6623 287.86 60.6733 288.07 60.6899V62.6157C287.938 62.5991 287.713 62.5881 287.398 62.5825C287.088 62.5715 286.872 62.6406 286.75 62.79C286.634 62.9339 286.576 63.0944 286.576 63.2715C286.576 63.4486 286.576 63.7031 286.576 64.0352H288.128V65.7036H286.576V73H284.219V65.7036H282.899V64.0352H284.194V63.4541C284.194 62.4857 284.357 61.8188 284.684 61.4536C285.027 60.9113 285.854 60.6401 287.166 60.6401ZM292.827 60.6401C292.976 60.6401 293.112 60.6457 293.233 60.6567C293.355 60.6623 293.521 60.6733 293.731 60.6899V62.6157C293.599 62.5991 293.375 62.5881 293.059 62.5825C292.749 62.5715 292.533 62.6406 292.412 62.79C292.295 62.9339 292.237 63.0944 292.237 63.2715C292.237 63.4486 292.237 63.7031 292.237 64.0352H293.79V65.7036H292.237V73H289.88V65.7036H288.56V64.0352H289.855V63.4541C289.855 62.4857 290.018 61.8188 290.345 61.4536C290.688 60.9113 291.515 60.6401 292.827 60.6401Z" fill="#99999A"/>
</svg>
