<svg width="68" height="21" viewBox="0 0 68 21" fill="none" xmlns="http://www.w3.org/2000/svg">
<path d="M0.794434 0.937012H7.57227C8.91211 0.937012 9.99219 1.31641 10.8125 2.0752C11.6328 2.82715 12.043 3.88672 12.043 5.25391C12.043 6.42969 11.6772 7.45508 10.9458 8.33008C10.2144 9.19824 9.08984 9.63232 7.57227 9.63232H2.83496V16H0.794434V0.937012ZM9.98193 5.26416C9.98193 4.15674 9.57178 3.40479 8.75146 3.0083C8.30029 2.79639 7.68164 2.69043 6.89551 2.69043H2.83496V7.90967H6.89551C7.81152 7.90967 8.55322 7.71484 9.12061 7.3252C9.69482 6.93555 9.98193 6.24854 9.98193 5.26416ZM14.4116 5.01807H16.165V6.91504C16.3086 6.5459 16.6606 6.09814 17.2212 5.57178C17.7817 5.03857 18.4277 4.77197 19.1592 4.77197C19.1934 4.77197 19.2515 4.77539 19.3335 4.78223C19.4155 4.78906 19.5557 4.80273 19.7539 4.82324V6.77148C19.6445 6.75098 19.542 6.7373 19.4463 6.73047C19.3574 6.72363 19.2583 6.72021 19.1489 6.72021C18.2192 6.72021 17.5049 7.021 17.0059 7.62256C16.5068 8.21729 16.2573 8.9043 16.2573 9.68359V16H14.4116V5.01807ZM21.3535 5.06934H23.23V16H21.3535V5.06934ZM21.3535 0.937012H23.23V3.02881H21.3535V0.937012ZM26.9316 5.01807L29.8643 13.9595L32.9302 5.01807H34.9502L30.8076 16H28.8389L24.7886 5.01807H26.9316ZM37.9443 13.0776C37.9443 13.6108 38.1392 14.0312 38.5288 14.3389C38.9185 14.6465 39.3799 14.8003 39.9131 14.8003C40.5625 14.8003 41.1914 14.6499 41.7998 14.3491C42.8252 13.8501 43.3379 13.0332 43.3379 11.8984V10.4116C43.1123 10.5552 42.8218 10.6748 42.4663 10.7705C42.1108 10.8662 41.7622 10.9346 41.4204 10.9756L40.3027 11.1191C39.6328 11.208 39.1304 11.3481 38.7954 11.5396C38.228 11.8608 37.9443 12.3735 37.9443 13.0776ZM42.415 9.34521C42.8389 9.29053 43.1226 9.11279 43.2661 8.81201C43.3481 8.64795 43.3892 8.41211 43.3892 8.10449C43.3892 7.47559 43.1636 7.021 42.7124 6.74072C42.2681 6.45361 41.6289 6.31006 40.7949 6.31006C39.8311 6.31006 39.1475 6.56982 38.7441 7.08936C38.5186 7.37646 38.3716 7.80371 38.3032 8.37109H36.5806C36.6147 7.01758 37.0522 6.07764 37.8931 5.55127C38.7407 5.01807 39.7217 4.75146 40.8359 4.75146C42.1279 4.75146 43.1772 4.99756 43.9839 5.48975C44.7837 5.98193 45.1836 6.74756 45.1836 7.78662V14.1133C45.1836 14.3047 45.2212 14.4585 45.2964 14.5747C45.3784 14.6909 45.5459 14.749 45.7988 14.749C45.8809 14.749 45.9731 14.7456 46.0757 14.7388C46.1782 14.7251 46.2876 14.708 46.4038 14.6875V16.0513C46.1167 16.1333 45.8979 16.1846 45.7476 16.2051C45.5972 16.2256 45.3921 16.2358 45.1323 16.2358C44.4966 16.2358 44.0352 16.0103 43.748 15.5591C43.5977 15.3198 43.4917 14.9814 43.4302 14.5439C43.0542 15.0361 42.5142 15.4634 41.8101 15.8257C41.106 16.188 40.3301 16.3691 39.4824 16.3691C38.4639 16.3691 37.6299 16.0615 36.9805 15.4463C36.3379 14.8242 36.0166 14.0483 36.0166 13.1187C36.0166 12.1001 36.3345 11.3105 36.9702 10.75C37.606 10.1895 38.4399 9.84424 39.4722 9.71436L42.415 9.34521ZM52.4536 4.7002C53.6909 4.7002 54.6958 5.00098 55.4683 5.60254C56.2476 6.2041 56.7158 7.23975 56.873 8.70947H55.0786C54.9692 8.03271 54.7197 7.47217 54.3301 7.02783C53.9404 6.57666 53.3149 6.35107 52.4536 6.35107C51.2778 6.35107 50.437 6.92529 49.9312 8.07373C49.603 8.81885 49.439 9.73828 49.439 10.832C49.439 11.9326 49.6714 12.8589 50.1362 13.6108C50.6011 14.3628 51.3325 14.7388 52.3306 14.7388C53.0962 14.7388 53.7012 14.5063 54.1455 14.0415C54.5967 13.5698 54.9077 12.9272 55.0786 12.1138H56.873C56.668 13.5698 56.1553 14.6362 55.335 15.313C54.5146 15.9829 53.4653 16.3179 52.187 16.3179C50.7515 16.3179 49.6064 15.7949 48.752 14.749C47.8975 13.6963 47.4702 12.3838 47.4702 10.8115C47.4702 8.88379 47.9385 7.3833 48.875 6.31006C49.8115 5.23682 51.0044 4.7002 52.4536 4.7002ZM65.5786 5.01807H67.6191C67.3594 5.72217 66.7817 7.32861 65.8862 9.8374C65.2163 11.7241 64.6558 13.2622 64.2046 14.4517C63.1382 17.2544 62.3862 18.9634 61.9487 19.5786C61.5112 20.1938 60.7593 20.5015 59.6929 20.5015C59.4331 20.5015 59.2314 20.4912 59.0879 20.4707C58.9512 20.4502 58.7803 20.4126 58.5752 20.3579V18.6763C58.8965 18.7651 59.1289 18.8198 59.2725 18.8403C59.416 18.8608 59.5425 18.8711 59.6519 18.8711C59.9937 18.8711 60.2432 18.813 60.4004 18.6968C60.5645 18.5874 60.7012 18.4507 60.8105 18.2866C60.8447 18.2319 60.9678 17.9517 61.1797 17.4458C61.3916 16.9399 61.5454 16.564 61.6411 16.3179L57.5806 5.01807H59.6724L62.6152 13.9595L65.5786 5.01807Z" fill="white"/>
</svg>
