<svg width="106" height="17" viewBox="0 0 106 17" fill="none" xmlns="http://www.w3.org/2000/svg">
<path d="M2.81445 0.937012V10.2476C2.81445 11.3413 3.01953 12.2505 3.42969 12.9751C4.03809 14.0688 5.06348 14.6157 6.50586 14.6157C8.23535 14.6157 9.41113 14.0244 10.0332 12.8418C10.3682 12.1992 10.5356 11.3345 10.5356 10.2476V0.937012H12.6069V9.39648C12.6069 11.249 12.3574 12.6743 11.8584 13.6724C10.9424 15.4907 9.21289 16.3999 6.66992 16.3999C4.12695 16.3999 2.40088 15.4907 1.4917 13.6724C0.992676 12.6743 0.743164 11.249 0.743164 9.39648V0.937012H2.81445ZM16.6265 12.5547C16.6812 13.1699 16.835 13.6416 17.0879 13.9697C17.5527 14.5645 18.3594 14.8618 19.5078 14.8618C20.1914 14.8618 20.793 14.7148 21.3125 14.4209C21.832 14.1201 22.0918 13.6587 22.0918 13.0366C22.0918 12.5649 21.8833 12.2061 21.4663 11.96C21.1997 11.8096 20.6733 11.6353 19.8872 11.437L18.4209 11.0679C17.4844 10.8354 16.7939 10.5757 16.3496 10.2886C15.5566 9.78955 15.1602 9.09912 15.1602 8.21729C15.1602 7.17822 15.5327 6.3374 16.2778 5.69482C17.0298 5.05225 18.0381 4.73096 19.3027 4.73096C20.957 4.73096 22.1499 5.21631 22.8813 6.18701C23.3394 6.80225 23.5615 7.46533 23.5479 8.17627H21.8047C21.7705 7.75928 21.6235 7.37988 21.3638 7.03809C20.9399 6.55273 20.2051 6.31006 19.1592 6.31006C18.4619 6.31006 17.9321 6.44336 17.5698 6.70996C17.2144 6.97656 17.0366 7.32861 17.0366 7.76611C17.0366 8.24463 17.2725 8.62744 17.7441 8.91455C18.0176 9.08545 18.4209 9.23584 18.9541 9.36572L20.1743 9.66309C21.5005 9.98438 22.3892 10.2954 22.8403 10.5962C23.5581 11.0679 23.917 11.8096 23.917 12.8213C23.917 13.7988 23.5444 14.6431 22.7993 15.354C22.061 16.0649 20.9331 16.4204 19.4155 16.4204C17.7817 16.4204 16.623 16.0513 15.9395 15.313C15.2627 14.5679 14.9004 13.6484 14.8525 12.5547H16.6265ZM30.6025 4.77197C31.3818 4.77197 32.1372 4.95654 32.8687 5.32568C33.6001 5.68799 34.1572 6.15967 34.54 6.74072C34.9092 7.29443 35.1553 7.94043 35.2783 8.67871C35.3877 9.18457 35.4424 9.99121 35.4424 11.0986H27.3931C27.4272 12.2129 27.6904 13.1084 28.1826 13.7852C28.6748 14.4551 29.437 14.79 30.4692 14.79C31.4331 14.79 32.2021 14.4722 32.7764 13.8364C33.1045 13.4673 33.3369 13.04 33.4736 12.5547H35.2886C35.2407 12.958 35.0801 13.4092 34.8066 13.9082C34.54 14.4004 34.2393 14.8037 33.9043 15.1182C33.3438 15.665 32.6499 16.0342 31.8228 16.2256C31.3784 16.335 30.876 16.3896 30.3154 16.3896C28.9482 16.3896 27.7896 15.894 26.8394 14.9028C25.8892 13.9048 25.4141 12.5103 25.4141 10.7192C25.4141 8.95557 25.8926 7.52344 26.8496 6.42285C27.8066 5.32227 29.0576 4.77197 30.6025 4.77197ZM33.5454 9.63232C33.4702 8.83252 33.2959 8.19336 33.0225 7.71484C32.5166 6.82617 31.6724 6.38184 30.4897 6.38184C29.6421 6.38184 28.9312 6.68945 28.3569 7.30469C27.7827 7.91309 27.4785 8.68896 27.4443 9.63232H33.5454ZM38.1802 3.34668C38.2075 2.58105 38.3408 2.02051 38.5801 1.66504C39.0107 1.03613 39.8413 0.72168 41.0718 0.72168C41.188 0.72168 41.3076 0.725098 41.4307 0.731934C41.5537 0.73877 41.6938 0.749023 41.8511 0.762695V2.44434C41.6597 2.43066 41.5195 2.42383 41.4307 2.42383C41.3486 2.41699 41.27 2.41357 41.1948 2.41357C40.6343 2.41357 40.2993 2.56055 40.1899 2.85449C40.0806 3.1416 40.0259 3.87988 40.0259 5.06934H41.8511V6.52539H40.0054V16H38.1802V6.52539H36.6523V5.06934H38.1802V3.34668ZM45.4092 5.01807V12.3086C45.4092 12.8691 45.498 13.3271 45.6758 13.6826C46.0039 14.3389 46.6157 14.667 47.5112 14.667C48.7964 14.667 49.6714 14.0928 50.1362 12.9443C50.3892 12.3291 50.5156 11.4849 50.5156 10.4116V5.01807H52.3613V16H50.6182L50.6387 14.3799C50.3994 14.7969 50.1021 15.1489 49.7466 15.436C49.0425 16.0103 48.188 16.2974 47.1831 16.2974C45.6177 16.2974 44.5513 15.7744 43.9839 14.7285C43.6763 14.168 43.5225 13.4194 43.5225 12.4829V5.01807H45.4092ZM55.3042 0.937012H57.1499V16H55.3042V0.937012ZM65.8247 0.937012H67.6704V16H65.8247V0.937012ZM70.4492 5.06934H72.3257V16H70.4492V5.06934ZM70.4492 0.937012H72.3257V3.02881H70.4492V0.937012ZM75.125 5.01807H76.8784V6.57666C77.3979 5.93408 77.9482 5.47266 78.5293 5.19238C79.1104 4.91211 79.7563 4.77197 80.4673 4.77197C82.0259 4.77197 83.0786 5.31543 83.6255 6.40234C83.9263 6.99707 84.0767 7.84814 84.0767 8.95557V16H82.2002V9.07861C82.2002 8.40869 82.1011 7.86865 81.9028 7.4585C81.5747 6.7749 80.98 6.43311 80.1187 6.43311C79.6812 6.43311 79.3223 6.47754 79.042 6.56641C78.5361 6.7168 78.0918 7.01758 77.709 7.46875C77.4014 7.83105 77.1997 8.20703 77.104 8.59668C77.0151 8.97949 76.9707 9.52979 76.9707 10.2476V16H75.125V5.01807ZM86.7734 0.937012H88.5474V9.68359L93.2847 5.01807H95.6431L91.439 9.12988L95.8789 16H93.5205L90.0957 10.4629L88.5474 11.8779V16H86.7734V0.937012ZM98.4116 12.5547C98.4663 13.1699 98.6201 13.6416 98.873 13.9697C99.3379 14.5645 100.145 14.8618 101.293 14.8618C101.977 14.8618 102.578 14.7148 103.098 14.4209C103.617 14.1201 103.877 13.6587 103.877 13.0366C103.877 12.5649 103.668 12.2061 103.251 11.96C102.985 11.8096 102.458 11.6353 101.672 11.437L100.206 11.0679C99.2695 10.8354 98.5791 10.5757 98.1348 10.2886C97.3418 9.78955 96.9453 9.09912 96.9453 8.21729C96.9453 7.17822 97.3179 6.3374 98.063 5.69482C98.8149 5.05225 99.8232 4.73096 101.088 4.73096C102.742 4.73096 103.935 5.21631 104.667 6.18701C105.125 6.80225 105.347 7.46533 105.333 8.17627H103.59C103.556 7.75928 103.409 7.37988 103.149 7.03809C102.725 6.55273 101.99 6.31006 100.944 6.31006C100.247 6.31006 99.7173 6.44336 99.355 6.70996C98.9995 6.97656 98.8218 7.32861 98.8218 7.76611C98.8218 8.24463 99.0576 8.62744 99.5293 8.91455C99.8027 9.08545 100.206 9.23584 100.739 9.36572L101.959 9.66309C103.286 9.98438 104.174 10.2954 104.625 10.5962C105.343 11.0679 105.702 11.8096 105.702 12.8213C105.702 13.7988 105.33 14.6431 104.584 15.354C103.846 16.0649 102.718 16.4204 101.201 16.4204C99.5669 16.4204 98.4082 16.0513 97.7246 15.313C97.0479 14.5679 96.6855 13.6484 96.6377 12.5547H98.4116Z" fill="white"/>
</svg>
