<svg width="154" height="20" viewBox="0 0 154 20" fill="none" xmlns="http://www.w3.org/2000/svg">
<path d="M0.660156 15.6992L10.3213 3.60059H0.901367V0.287109H15.1963V3.42285L5.4082 15.6992H15.2217V19H0.660156V15.6992ZM24.1084 5.16211H27.7773L29.8848 15.1279L32.043 5.16211H35.8135L31.8018 19H28.082L25.9111 8.91992L23.7148 19H19.957L16.0723 5.16211H19.957L22.1152 15.0898L24.1084 5.16211ZM36.3975 7.86621V5.28906H38.3271V1.42969H41.9072V5.28906H44.1543V7.86621H41.9072V15.1787C41.9072 15.7458 41.9792 16.1012 42.123 16.2451C42.2669 16.3805 42.707 16.4482 43.4434 16.4482C43.5534 16.4482 43.6676 16.4482 43.7861 16.4482C43.9131 16.4398 44.0358 16.4313 44.1543 16.4229V19.127L42.4404 19.1904C40.7308 19.2497 39.5628 18.9535 38.9365 18.3018C38.5303 17.887 38.3271 17.248 38.3271 16.3848V7.86621H36.3975ZM45.0557 7.86621V5.28906H46.9854V1.42969H50.5654V5.28906H52.8125V7.86621H50.5654V15.1787C50.5654 15.7458 50.6374 16.1012 50.7812 16.2451C50.9251 16.3805 51.3652 16.4482 52.1016 16.4482C52.2116 16.4482 52.3258 16.4482 52.4443 16.4482C52.5713 16.4398 52.694 16.4313 52.8125 16.4229V19.127L51.0986 19.1904C49.389 19.2497 48.221 18.9535 47.5947 18.3018C47.1885 17.887 46.9854 17.248 46.9854 16.3848V7.86621H45.0557ZM62.7656 12.2715C62.5371 12.4154 62.3044 12.5339 62.0674 12.627C61.8389 12.7116 61.5215 12.792 61.1152 12.8682L60.3027 13.0205C59.541 13.1559 58.9951 13.321 58.665 13.5156C58.1064 13.8457 57.8271 14.3577 57.8271 15.0518C57.8271 15.6696 57.9964 16.1182 58.335 16.3975C58.682 16.6683 59.1009 16.8037 59.5918 16.8037C60.3704 16.8037 61.0856 16.5752 61.7373 16.1182C62.3975 15.6611 62.7402 14.8275 62.7656 13.6172V12.2715ZM60.5693 10.583C61.238 10.4984 61.7161 10.3926 62.0039 10.2656C62.5202 10.0456 62.7783 9.7028 62.7783 9.2373C62.7783 8.67025 62.5794 8.28092 62.1816 8.06934C61.7923 7.84928 61.2168 7.73926 60.4551 7.73926C59.6003 7.73926 58.9951 7.95085 58.6396 8.37402C58.3857 8.68717 58.2165 9.11035 58.1318 9.64355H54.6406C54.7168 8.43327 55.0553 7.4388 55.6562 6.66016C56.6126 5.44141 58.2546 4.83203 60.582 4.83203C62.097 4.83203 63.4427 5.13249 64.6191 5.7334C65.7956 6.33431 66.3838 7.46842 66.3838 9.13574V15.4834C66.3838 15.9235 66.3923 16.4567 66.4092 17.083C66.4346 17.557 66.5065 17.8786 66.625 18.0479C66.7435 18.2171 66.9212 18.3568 67.1582 18.4668V19H63.2227C63.1126 18.7207 63.0365 18.4583 62.9941 18.2129C62.9518 17.9674 62.918 17.6882 62.8926 17.375C62.3932 17.9167 61.8177 18.3779 61.166 18.7588C60.3874 19.2074 59.5072 19.4316 58.5254 19.4316C57.2728 19.4316 56.236 19.0762 55.415 18.3652C54.6025 17.6458 54.1963 16.6302 54.1963 15.3184C54.1963 13.6172 54.8522 12.3857 56.1641 11.624C56.8835 11.2093 57.9414 10.9131 59.3379 10.7354L60.5693 10.583ZM77.1113 19V0.287109H80.9834V7.42188H88.2959V0.287109H92.1807V19H88.2959V10.6465H80.9834V19H77.1113ZM101.842 16.4482C102.9 16.4482 103.712 16.0716 104.279 15.3184C104.846 14.5651 105.13 13.4945 105.13 12.1064C105.13 10.7184 104.846 9.65202 104.279 8.90723C103.712 8.15397 102.9 7.77734 101.842 7.77734C100.784 7.77734 99.9671 8.15397 99.3916 8.90723C98.8245 9.65202 98.541 10.7184 98.541 12.1064C98.541 13.4945 98.8245 14.5651 99.3916 15.3184C99.9671 16.0716 100.784 16.4482 101.842 16.4482ZM108.926 12.1064C108.926 14.1377 108.342 15.877 107.174 17.3242C106.006 18.763 104.233 19.4824 101.854 19.4824C99.4762 19.4824 97.7031 18.763 96.5352 17.3242C95.3672 15.877 94.7832 14.1377 94.7832 12.1064C94.7832 10.109 95.3672 8.37826 96.5352 6.91406C97.7031 5.44987 99.4762 4.71777 101.854 4.71777C104.233 4.71777 106.006 5.44987 107.174 6.91406C108.342 8.37826 108.926 10.109 108.926 12.1064ZM110.106 7.86621V5.28906H112.036V1.42969H115.616V5.28906H117.863V7.86621H115.616V15.1787C115.616 15.7458 115.688 16.1012 115.832 16.2451C115.976 16.3805 116.416 16.4482 117.152 16.4482C117.262 16.4482 117.377 16.4482 117.495 16.4482C117.622 16.4398 117.745 16.4313 117.863 16.4229V19.127L116.149 19.1904C114.44 19.2497 113.272 18.9535 112.646 18.3018C112.239 17.887 112.036 17.248 112.036 16.3848V7.86621H110.106ZM125.646 7.77734C124.808 7.77734 124.156 8.03971 123.69 8.56445C123.233 9.08919 122.946 9.80013 122.827 10.6973H128.451C128.392 9.74089 128.1 9.01725 127.575 8.52637C127.059 8.02702 126.416 7.77734 125.646 7.77734ZM125.646 4.79395C126.797 4.79395 127.833 5.00977 128.756 5.44141C129.678 5.87305 130.44 6.55436 131.041 7.48535C131.583 8.30632 131.934 9.25846 132.095 10.3418C132.188 10.9766 132.226 11.8906 132.209 13.084H122.738C122.789 14.472 123.225 15.4453 124.046 16.0039C124.545 16.3509 125.146 16.5244 125.849 16.5244C126.593 16.5244 127.199 16.3128 127.664 15.8896C127.918 15.6611 128.142 15.3438 128.337 14.9375H132.031C131.938 15.7585 131.511 16.5921 130.749 17.4385C129.564 18.7842 127.905 19.457 125.772 19.457C124.012 19.457 122.459 18.89 121.113 17.7559C119.768 16.6217 119.095 14.7767 119.095 12.2207C119.095 9.82552 119.7 7.98893 120.91 6.71094C122.129 5.43294 123.707 4.79395 125.646 4.79395ZM138.354 19H134.735V0.287109H138.354V19ZM144.714 14.582C144.79 15.2253 144.955 15.6823 145.209 15.9531C145.658 16.4355 146.487 16.6768 147.697 16.6768C148.408 16.6768 148.971 16.571 149.386 16.3594C149.809 16.1478 150.021 15.8304 150.021 15.4072C150.021 15.001 149.851 14.6921 149.513 14.4805C149.174 14.2689 147.917 13.9049 145.742 13.3887C144.176 12.9993 143.072 12.5127 142.429 11.9287C141.785 11.3532 141.464 10.5238 141.464 9.44043C141.464 8.16243 141.963 7.06641 142.962 6.15234C143.969 5.22982 145.382 4.76855 147.202 4.76855C148.929 4.76855 150.334 5.11556 151.417 5.80957C152.509 6.49512 153.135 7.68424 153.296 9.37695H149.678C149.627 8.91146 149.496 8.54329 149.284 8.27246C148.886 7.78158 148.209 7.53613 147.253 7.53613C146.466 7.53613 145.903 7.65885 145.564 7.9043C145.234 8.14974 145.069 8.4375 145.069 8.76758C145.069 9.18229 145.247 9.48275 145.603 9.66895C145.958 9.86361 147.215 10.1979 149.373 10.6719C150.812 11.0104 151.891 11.5225 152.61 12.208C153.321 12.902 153.677 13.7695 153.677 14.8105C153.677 16.1816 153.165 17.3031 152.141 18.1748C151.125 19.0381 149.551 19.4697 147.418 19.4697C145.243 19.4697 143.635 19.0127 142.594 18.0986C141.561 17.1761 141.045 16.0039 141.045 14.582H144.714Z" fill="white"/>
</svg>
